<svg xmlns="http://www.w3.org/2000/svg" xmlns:xlink="http://www.w3.org/1999/xlink" width="300" zoomAndPan="magnify" viewBox="0 0 224.87999 187.499995" height="250" preserveAspectRatio="xMidYMid meet" version="1.0"><defs><g/><clipPath id="28fb6914ba"><path d="M 0.238281 0 L 81 0 L 81 83 L 0.238281 83 Z M 0.238281 0 " clip-rule="nonzero"/></clipPath><clipPath id="f82eca9031"><path d="M -7.613281 61.28125 L 45.21875 -17.453125 L 97.070312 17.335938 L 44.238281 96.070312 Z M -7.613281 61.28125 " clip-rule="nonzero"/></clipPath><clipPath id="06bb8f20f6"><path d="M -7.613281 61.28125 L 45.21875 -17.453125 L 97.070312 17.335938 L 44.238281 96.070312 Z M -7.613281 61.28125 " clip-rule="nonzero"/></clipPath><clipPath id="99fde07de6"><path d="M 2 1 L 79 1 L 79 80 L 2 80 Z M 2 1 " clip-rule="nonzero"/></clipPath><clipPath id="9dd10bb30a"><path d="M -7.613281 61.28125 L 45.21875 -17.453125 L 97.070312 17.335938 L 44.238281 96.070312 Z M -7.613281 61.28125 " clip-rule="nonzero"/></clipPath><clipPath id="efcccf2685"><path d="M -7.613281 61.28125 L 45.21875 -17.453125 L 97.070312 17.335938 L 44.238281 96.070312 Z M -7.613281 61.28125 " clip-rule="nonzero"/></clipPath><clipPath id="91ad72d194"><path d="M 9 61 L 26 61 L 26 69 L 9 69 Z M 9 61 " clip-rule="nonzero"/></clipPath><clipPath id="a00229aa16"><path d="M -7.613281 61.28125 L 45.21875 -17.453125 L 97.070312 17.335938 L 44.238281 96.070312 Z M -7.613281 61.28125 " clip-rule="nonzero"/></clipPath><clipPath id="2045728e93"><path d="M -7.613281 61.28125 L 45.21875 -17.453125 L 97.070312 17.335938 L 44.238281 96.070312 Z M -7.613281 61.28125 " clip-rule="nonzero"/></clipPath><clipPath id="381fb75402"><path d="M 32 19 L 47 19 L 47 37 L 32 37 Z M 32 19 " clip-rule="nonzero"/></clipPath><clipPath id="24661dee85"><path d="M -7.613281 61.28125 L 45.21875 -17.453125 L 97.070312 17.335938 L 44.238281 96.070312 Z M -7.613281 61.28125 " clip-rule="nonzero"/></clipPath><clipPath id="810d9ecc87"><path d="M -7.613281 61.28125 L 45.21875 -17.453125 L 97.070312 17.335938 L 44.238281 96.070312 Z M -7.613281 61.28125 " clip-rule="nonzero"/></clipPath><clipPath id="b607965bf8"><path d="M 32 15 L 77 15 L 77 55 L 32 55 Z M 32 15 " clip-rule="nonzero"/></clipPath><clipPath id="550b68ff20"><path d="M -7.613281 61.28125 L 45.21875 -17.453125 L 97.070312 17.335938 L 44.238281 96.070312 Z M -7.613281 61.28125 " clip-rule="nonzero"/></clipPath><clipPath id="cded4354c1"><path d="M -7.613281 61.28125 L 45.21875 -17.453125 L 97.070312 17.335938 L 44.238281 96.070312 Z M -7.613281 61.28125 " clip-rule="nonzero"/></clipPath><clipPath id="53d6bbfd50"><path d="M 21 32 L 41 32 L 41 41 L 21 41 Z M 21 32 " clip-rule="nonzero"/></clipPath><clipPath id="b8ecf87b26"><path d="M -7.613281 61.28125 L 45.21875 -17.453125 L 97.070312 17.335938 L 44.238281 96.070312 Z M -7.613281 61.28125 " clip-rule="nonzero"/></clipPath><clipPath id="050dd372f5"><path d="M -7.613281 61.28125 L 45.21875 -17.453125 L 97.070312 17.335938 L 44.238281 96.070312 Z M -7.613281 61.28125 " clip-rule="nonzero"/></clipPath><clipPath id="c19da18c67"><path d="M 62 33 L 68 33 L 68 41 L 62 41 Z M 62 33 " clip-rule="nonzero"/></clipPath><clipPath id="12e331860c"><path d="M -7.613281 61.28125 L 45.21875 -17.453125 L 97.070312 17.335938 L 44.238281 96.070312 Z M -7.613281 61.28125 " clip-rule="nonzero"/></clipPath><clipPath id="909b0ec82e"><path d="M -7.613281 61.28125 L 45.21875 -17.453125 L 97.070312 17.335938 L 44.238281 96.070312 Z M -7.613281 61.28125 " clip-rule="nonzero"/></clipPath><clipPath id="3fc216d98e"><path d="M 42 21 L 69 21 L 69 44 L 42 44 Z M 42 21 " clip-rule="nonzero"/></clipPath><clipPath id="8581a1d7e9"><path d="M -7.613281 61.28125 L 45.21875 -17.453125 L 97.070312 17.335938 L 44.238281 96.070312 Z M -7.613281 61.28125 " clip-rule="nonzero"/></clipPath><clipPath id="5dfd412477"><path d="M -7.613281 61.28125 L 45.21875 -17.453125 L 97.070312 17.335938 L 44.238281 96.070312 Z M -7.613281 61.28125 " clip-rule="nonzero"/></clipPath><clipPath id="cdf4e5080c"><path d="M 32 41 L 51 41 L 51 56 L 32 56 Z M 32 41 " clip-rule="nonzero"/></clipPath><clipPath id="95ec4c2e25"><path d="M -7.613281 61.28125 L 45.21875 -17.453125 L 97.070312 17.335938 L 44.238281 96.070312 Z M -7.613281 61.28125 " clip-rule="nonzero"/></clipPath><clipPath id="48a31640a4"><path d="M -7.613281 61.28125 L 45.21875 -17.453125 L 97.070312 17.335938 L 44.238281 96.070312 Z M -7.613281 61.28125 " clip-rule="nonzero"/></clipPath><clipPath id="3190053ecb"><path d="M 18 62 L 27 62 L 27 68 L 18 68 Z M 18 62 " clip-rule="nonzero"/></clipPath><clipPath id="e1308dd368"><path d="M -7.613281 61.28125 L 45.21875 -17.453125 L 97.070312 17.335938 L 44.238281 96.070312 Z M -7.613281 61.28125 " clip-rule="nonzero"/></clipPath><clipPath id="7fca2e05b4"><path d="M -7.613281 61.28125 L 45.21875 -17.453125 L 97.070312 17.335938 L 44.238281 96.070312 Z M -7.613281 61.28125 " clip-rule="nonzero"/></clipPath></defs><g fill="#ffffff" fill-opacity="1"><g transform="translate(37.767074, 113.07656)"><g><path d="M 22.421875 -43.671875 L 33.21875 -43.671875 L 33.21875 -31.796875 L 22.84375 -31.796875 L 22.84375 0 L 6.9375 0 L 6.9375 -31.796875 L 0.328125 -31.796875 L 0.328125 -43.671875 L 6.9375 -43.671875 L 6.9375 -44.84375 C 6.9375 -50.363281 8.597656 -54.738281 11.921875 -57.96875 C 15.242188 -61.207031 19.882812 -62.828125 25.84375 -62.828125 C 27.851562 -62.828125 29.804688 -62.628906 31.703125 -62.234375 C 33.597656 -61.847656 35.160156 -61.265625 36.390625 -60.484375 L 32.453125 -49.28125 C 30.890625 -50.164062 29.300781 -50.609375 27.6875 -50.609375 C 26.019531 -50.609375 24.722656 -50.101562 23.796875 -49.09375 C 22.878906 -48.09375 22.421875 -46.617188 22.421875 -44.671875 Z M 22.421875 -43.671875 "/></g></g></g><g fill="#ffffff" fill-opacity="1"><g transform="translate(65.368641, 113.07656)"><g><path d="M 27.859375 0.75 C 23.003906 0.75 18.625 -0.25 14.71875 -2.25 C 10.820312 -4.257812 7.769531 -7.050781 5.5625 -10.625 C 3.363281 -14.195312 2.265625 -18.238281 2.265625 -22.75 C 2.265625 -27.21875 3.363281 -31.234375 5.5625 -34.796875 C 7.769531 -38.367188 10.8125 -41.144531 14.6875 -43.125 C 18.5625 -45.101562 22.953125 -46.09375 27.859375 -46.09375 C 32.765625 -46.09375 37.171875 -45.101562 41.078125 -43.125 C 44.984375 -41.144531 48.019531 -38.382812 50.1875 -34.84375 C 52.363281 -31.300781 53.453125 -27.269531 53.453125 -22.75 C 53.453125 -18.238281 52.363281 -14.195312 50.1875 -10.625 C 48.019531 -7.050781 44.984375 -4.257812 41.078125 -2.25 C 37.171875 -0.25 32.765625 0.75 27.859375 0.75 Z M 27.859375 -11.875 C 30.648438 -11.875 32.9375 -12.835938 34.71875 -14.765625 C 36.5 -16.691406 37.390625 -19.351562 37.390625 -22.75 C 37.390625 -26.101562 36.5 -28.726562 34.71875 -30.625 C 32.9375 -32.519531 30.648438 -33.46875 27.859375 -33.46875 C 25.066406 -33.46875 22.78125 -32.519531 21 -30.625 C 19.21875 -28.726562 18.328125 -26.101562 18.328125 -22.75 C 18.328125 -19.351562 19.21875 -16.691406 21 -14.765625 C 22.78125 -12.835938 25.066406 -11.875 27.859375 -11.875 Z M 27.859375 -11.875 "/></g></g></g><g fill="#ffffff" fill-opacity="1"><g transform="translate(114.717819, 113.07656)"><g><path d="M 27.859375 0.75 C 23.003906 0.75 18.625 -0.25 14.71875 -2.25 C 10.820312 -4.257812 7.769531 -7.050781 5.5625 -10.625 C 3.363281 -14.195312 2.265625 -18.238281 2.265625 -22.75 C 2.265625 -27.21875 3.363281 -31.234375 5.5625 -34.796875 C 7.769531 -38.367188 10.8125 -41.144531 14.6875 -43.125 C 18.5625 -45.101562 22.953125 -46.09375 27.859375 -46.09375 C 32.765625 -46.09375 37.171875 -45.101562 41.078125 -43.125 C 44.984375 -41.144531 48.019531 -38.382812 50.1875 -34.84375 C 52.363281 -31.300781 53.453125 -27.269531 53.453125 -22.75 C 53.453125 -18.238281 52.363281 -14.195312 50.1875 -10.625 C 48.019531 -7.050781 44.984375 -4.257812 41.078125 -2.25 C 37.171875 -0.25 32.765625 0.75 27.859375 0.75 Z M 27.859375 -11.875 C 30.648438 -11.875 32.9375 -12.835938 34.71875 -14.765625 C 36.5 -16.691406 37.390625 -19.351562 37.390625 -22.75 C 37.390625 -26.101562 36.5 -28.726562 34.71875 -30.625 C 32.9375 -32.519531 30.648438 -33.46875 27.859375 -33.46875 C 25.066406 -33.46875 22.78125 -32.519531 21 -30.625 C 19.21875 -28.726562 18.328125 -26.101562 18.328125 -22.75 C 18.328125 -19.351562 19.21875 -16.691406 21 -14.765625 C 22.78125 -12.835938 25.066406 -11.875 27.859375 -11.875 Z M 27.859375 -11.875 "/></g></g></g><g fill="#ffffff" fill-opacity="1"><g transform="translate(164.06699, 113.07656)"><g><path d="M 53.296875 -62.078125 L 53.296875 0 L 38.140625 0 L 38.140625 -4.515625 C 35.191406 -1.003906 30.757812 0.75 24.84375 0.75 C 20.71875 0.75 16.953125 -0.207031 13.546875 -2.125 C 10.148438 -4.050781 7.460938 -6.800781 5.484375 -10.375 C 3.503906 -13.945312 2.515625 -18.070312 2.515625 -22.75 C 2.515625 -27.4375 3.503906 -31.550781 5.484375 -35.09375 C 7.460938 -38.632812 10.148438 -41.351562 13.546875 -43.25 C 16.953125 -45.144531 20.71875 -46.09375 24.84375 -46.09375 C 30.25 -46.09375 34.429688 -44.53125 37.390625 -41.40625 L 37.390625 -62.078125 Z M 28.1875 -11.875 C 30.925781 -11.875 33.1875 -12.835938 34.96875 -14.765625 C 36.75 -16.691406 37.640625 -19.351562 37.640625 -22.75 C 37.640625 -26.101562 36.757812 -28.726562 35 -30.625 C 33.25 -32.519531 30.976562 -33.46875 28.1875 -33.46875 C 25.40625 -33.46875 23.117188 -32.519531 21.328125 -30.625 C 19.546875 -28.726562 18.65625 -26.101562 18.65625 -22.75 C 18.65625 -19.351562 19.546875 -16.691406 21.328125 -14.765625 C 23.117188 -12.835938 25.40625 -11.875 28.1875 -11.875 Z M 28.1875 -11.875 "/></g></g></g><g clip-path="url(#28fb6914ba)"><g clip-path="url(#f82eca9031)"><g clip-path="url(#06bb8f20f6)"><path fill="#1b2123" d="M 74.253906 49.902344 C 64.242188 54.042969 53.949219 60.664062 45.269531 68.550781 C 40.949219 72.476562 37.132812 76.609375 33.929688 80.835938 L 32.292969 82.996094 L 25.484375 67.738281 C 22.46875 69.761719 15.847656 73.28125 8.792969 71.066406 C 5.371094 69.992188 3.09375 68.261719 1.832031 65.769531 C 0.175781 62.5 -2.046875 53.035156 6.941406 45.546875 C 13.511719 39.578125 23.925781 38.191406 26.09375 37.964844 C 26.804688 37.519531 27.445312 37.035156 28.050781 36.484375 C 30.480469 34.277344 31.929688 31.308594 33.605469 27.867188 C 36.003906 22.960938 38.984375 16.851562 46.0625 10.421875 C 46.933594 9.628906 47.859375 8.839844 48.816406 8.070312 C 57.1875 1.363281 63.878906 -1.0625 69.273438 0.664062 C 71.664062 1.429688 77.867188 5.640625 80.078125 13.621094 C 81.351562 17.84375 80 22.324219 77.601562 26.816406 C 76.46875 28.9375 74.285156 32.222656 70.308594 35.835938 C 69.21875 36.824219 68.238281 37.621094 67.496094 38.1875 L 76.210938 49.089844 Z M 74.253906 49.902344 " fill-opacity="1" fill-rule="nonzero"/></g></g></g><g clip-path="url(#99fde07de6)"><g clip-path="url(#9dd10bb30a)"><g clip-path="url(#efcccf2685)"><path fill="#ffffff" d="M 77.765625 14.128906 C 79.144531 18.71875 77.921875 23.0625 75.789062 26.753906 C 71.957031 33.363281 65.191406 37.863281 65.191406 37.863281 L 73.621094 48.414062 C 69.75 50.015625 65.84375 51.972656 62.003906 54.230469 C 50.816406 60.804688 40.199219 69.882812 32.644531 79.851562 L 26.125 65.25 C 26.125 65.25 17.914062 72.246094 9.253906 69.53125 C 3.75 67.800781 0.527344 62.03125 3.316406 53.171875 C 7.421875 41.417969 26.632812 39.53125 26.632812 39.53125 C 36.203125 33.859375 33.652344 22.300781 49.832031 9.335938 C 65.960938 -3.589844 73.910156 1.316406 77.765625 14.128906 Z M 77.765625 14.128906 " fill-opacity="1" fill-rule="nonzero"/></g></g></g><g clip-path="url(#91ad72d194)"><g clip-path="url(#a00229aa16)"><g clip-path="url(#2045728e93)"><path fill="#ffffff" d="M 25.128906 65.511719 C 25.128906 65.511719 18.585938 68.78125 14.71875 68.378906 C 10.761719 67.964844 9.207031 66.160156 9.972656 66.09375 C 10.738281 66.027344 14.5 67.214844 16.203125 65.457031 C 17.910156 63.695312 13.496094 62.472656 15.589844 61.828125 C 17.6875 61.179688 20.710938 61.78125 22.628906 62.757812 C 24.550781 63.734375 25.128906 65.511719 25.128906 65.511719 Z M 25.128906 65.511719 " fill-opacity="1" fill-rule="nonzero"/></g></g></g><g clip-path="url(#381fb75402)"><g clip-path="url(#24661dee85)"><g clip-path="url(#810d9ecc87)"><path fill="#ffffff" d="M 32.085938 36.613281 C 32.085938 36.613281 36.296875 33.695312 39.148438 28.039062 C 42 22.382812 44.648438 18.882812 45.847656 20.203125 C 47.046875 21.519531 47.132812 24.945312 42.710938 30.058594 C 38.285156 35.171875 32.085938 36.613281 32.085938 36.613281 Z M 32.085938 36.613281 " fill-opacity="1" fill-rule="nonzero"/></g></g></g><g clip-path="url(#b607965bf8)"><g clip-path="url(#550b68ff20)"><g clip-path="url(#cded4354c1)"><path fill="#ffffff" d="M 76.617188 21.09375 C 76.597656 21.21875 76.152344 24.574219 75.785156 26.753906 C 71.957031 33.363281 65.191406 37.863281 65.191406 37.863281 L 73.621094 48.414062 C 69.75 50.015625 65.84375 51.972656 62.003906 54.230469 C 62.628906 52.945312 62.789062 51.324219 61.867188 49.34375 C 59.128906 43.464844 56.167969 40.847656 56.167969 40.847656 C 56.167969 40.847656 52.78125 48.644531 48.050781 51.761719 C 43.355469 54.855469 33.097656 53.714844 32.9375 53.695312 C 33.023438 53.644531 37.820312 51.023438 40.042969 48.710938 C 42.285156 46.378906 42.285156 46.378906 42.285156 46.378906 C 38.613281 44.960938 35.21875 43.515625 37.269531 41.496094 C 37.269531 41.496094 48.867188 43.054688 58.089844 31.433594 C 67.308594 19.8125 63.984375 14.871094 68.390625 15.878906 C 72.800781 16.886719 70.363281 27.65625 72.875 26.257812 C 75.34375 24.882812 76.574219 21.222656 76.617188 21.09375 Z M 76.617188 21.09375 " fill-opacity="1" fill-rule="nonzero"/></g></g></g><g clip-path="url(#53d6bbfd50)"><g clip-path="url(#b8ecf87b26)"><g clip-path="url(#050dd372f5)"><path fill="#1b2123" d="M 21.136719 40.34375 C 21.136719 40.34375 27.585938 40.105469 32.640625 38.203125 C 37.699219 36.300781 40.050781 32.070312 40.050781 32.070312 C 40.050781 32.070312 35.5625 35.25 32.085938 36.617188 C 28.605469 37.980469 27.824219 38.09375 27.824219 38.09375 Z M 21.136719 40.34375 " fill-opacity="1" fill-rule="nonzero"/></g></g></g><g clip-path="url(#c19da18c67)"><g clip-path="url(#12e331860c)"><g clip-path="url(#909b0ec82e)"><path fill="#1b2123" d="M 62.546875 33.296875 C 62.675781 34.335938 65.179688 37.78125 67.15625 40.308594 L 67.496094 38.191406 C 66.011719 36.417969 64.785156 34.820312 63.769531 33.363281 Z M 62.546875 33.296875 " fill-opacity="1" fill-rule="nonzero"/></g></g></g><g clip-path="url(#3fc216d98e)"><g clip-path="url(#8581a1d7e9)"><g clip-path="url(#5dfd412477)"><path fill="#1b2123" d="M 68.921875 21.132812 C 68.921875 21.132812 69.167969 27.820312 59.925781 35.234375 C 50.683594 42.648438 42.832031 43.851562 42.832031 43.851562 C 42.832031 43.851562 50.992188 44.125 59.933594 37.890625 C 65.460938 33.847656 63.996094 34.910156 66.699219 31.226562 C 69.40625 27.539062 68.921875 21.132812 68.921875 21.132812 Z M 68.921875 21.132812 " fill-opacity="1" fill-rule="nonzero"/></g></g></g><g clip-path="url(#cdf4e5080c)"><g clip-path="url(#95ec4c2e25)"><g clip-path="url(#48a31640a4)"><path fill="#1b2123" d="M 47.765625 42.855469 C 45.871094 48.21875 39.382812 53.691406 32.394531 55.101562 C 32.394531 55.101562 35.144531 56.015625 41.234375 52.921875 C 47.320312 49.828125 50.820312 41.773438 50.820312 41.773438 Z M 47.765625 42.855469 " fill-opacity="1" fill-rule="nonzero"/></g></g></g><g clip-path="url(#3190053ecb)"><g clip-path="url(#e1308dd368)"><g clip-path="url(#7fca2e05b4)"><path fill="#1b2123" d="M 26.804688 67.21875 C 26.730469 66.75 26.417969 65.234375 25.4375 64.152344 C 24.453125 63.070312 18.867188 62.574219 18.867188 62.574219 C 18.867188 62.574219 22.550781 63.902344 23.726562 64.808594 C 24.90625 65.714844 25.484375 67.738281 25.484375 67.738281 Z M 26.804688 67.21875 " fill-opacity="1" fill-rule="nonzero"/></g></g></g><g fill="#ffffff" fill-opacity="1"><g transform="translate(37.015001, 195.696109)"><g><path d="M 22.503906 -12.109375 C 23.304688 -12.109375 23.988281 -12.335938 24.675781 -12.679688 C 26.160156 -13.480469 26.960938 -14.964844 26.960938 -17.019531 C 26.960938 -23.417969 26.960938 -26.960938 26.84375 -27.644531 C 26.84375 -35.753906 26.84375 -39.980469 26.84375 -40.4375 C 26.730469 -40.894531 26.730469 -41.808594 26.730469 -43.066406 C 26.730469 -45.121094 26.730469 -46.492188 26.617188 -47.179688 C 26.617188 -49.464844 26.617188 -50.835938 26.617188 -51.292969 C 26.503906 -51.632812 26.503906 -52.089844 26.503906 -52.546875 C 26.503906 -52.890625 26.503906 -53.347656 26.503906 -53.804688 C 26.386719 -54.261719 26.386719 -54.71875 26.386719 -55.0625 C 26.386719 -55.402344 26.386719 -55.859375 26.386719 -56.316406 C 26.273438 -56.660156 26.273438 -57.117188 26.273438 -57.574219 C 26.273438 -57.917969 26.273438 -58.375 26.273438 -58.832031 C 26.160156 -59.171875 26.160156 -59.515625 26.160156 -59.859375 C 26.160156 -60.773438 26.046875 -61.574219 25.929688 -62.144531 C 25.929688 -63.402344 25.816406 -64.199219 25.703125 -64.3125 L 25.703125 -64.65625 C 31.070312 -64.65625 34.042969 -64.65625 34.386719 -64.769531 C 34.726562 -64.769531 35.070312 -64.769531 35.640625 -64.769531 C 37.699219 -64.769531 39.070312 -65.570312 39.867188 -67.054688 C 40.324219 -67.855469 40.554688 -68.542969 40.554688 -69.339844 C 40.554688 -70.027344 40.324219 -70.710938 39.867188 -71.511719 C 39.070312 -73.109375 37.582031 -73.910156 35.414062 -73.910156 C 34.839844 -73.910156 34.5 -73.910156 34.15625 -73.910156 C 33.8125 -73.796875 24.332031 -73.796875 5.941406 -73.796875 C 4 -73.796875 2.628906 -72.996094 1.714844 -71.511719 C 1.371094 -70.710938 1.140625 -70.027344 1.140625 -69.226562 C 1.140625 -68.425781 1.371094 -67.742188 1.714844 -66.941406 C 2.628906 -65.457031 4 -64.65625 5.941406 -64.65625 L 16.5625 -64.65625 C 16.5625 -64.429688 16.5625 -64.199219 16.679688 -64.085938 C 16.679688 -63.859375 16.679688 -63.742188 16.792969 -63.628906 C 16.792969 -63.515625 16.792969 -62.828125 16.792969 -61.457031 C 16.90625 -60.886719 17.019531 -60.085938 17.019531 -59.171875 L 17.019531 -58.261719 C 17.136719 -57.347656 17.25 -56.089844 17.25 -54.488281 C 17.363281 -53.917969 17.363281 -53.003906 17.363281 -51.976562 C 17.363281 -51.632812 17.363281 -51.292969 17.476562 -50.949219 C 17.476562 -50.492188 17.476562 -49.121094 17.476562 -46.949219 C 17.59375 -46.152344 17.59375 -44.78125 17.59375 -42.839844 C 17.59375 -41.582031 17.59375 -40.78125 17.707031 -40.324219 C 17.707031 -39.867188 17.707031 -35.640625 17.707031 -27.644531 C 17.820312 -26.84375 17.820312 -23.304688 17.820312 -17.019531 C 17.820312 -15.078125 18.621094 -13.707031 20.105469 -12.792969 C 20.90625 -12.335938 21.703125 -12.109375 22.503906 -12.109375 Z M 22.503906 -12.109375 "/></g></g></g><g fill="#ffffff" fill-opacity="1"><g transform="translate(78.479287, 195.696109)"><g><path d="M 18.277344 -50.035156 L 15.421875 -50.035156 C 15.078125 -50.148438 14.621094 -50.261719 14.164062 -50.261719 C 13.9375 -50.378906 13.707031 -50.492188 13.480469 -50.492188 C 12.910156 -50.835938 12.222656 -50.949219 11.652344 -50.949219 L 10.964844 -50.949219 L 10.964844 -52.890625 C 11.082031 -54.035156 11.082031 -55.632812 11.082031 -57.6875 C 11.082031 -59.859375 11.082031 -61.117188 11.082031 -61.457031 C 10.964844 -61.800781 10.964844 -62.371094 10.964844 -63.285156 C 10.964844 -64.085938 10.964844 -64.886719 10.851562 -65.457031 L 12.109375 -66.714844 C 12.222656 -66.714844 12.335938 -66.828125 12.566406 -66.941406 C 12.679688 -67.054688 12.910156 -67.171875 13.136719 -67.171875 C 13.59375 -67.398438 14.507812 -67.511719 15.765625 -67.511719 C 16.222656 -67.511719 16.679688 -67.398438 17.019531 -67.171875 C 17.363281 -67.171875 17.59375 -67.171875 17.820312 -67.054688 C 17.933594 -66.941406 18.050781 -66.828125 18.164062 -66.714844 C 18.621094 -66.484375 18.964844 -66.257812 19.191406 -66.027344 C 19.875 -65.683594 20.789062 -64.769531 22.046875 -63.058594 C 22.277344 -62.714844 22.503906 -62.371094 22.734375 -61.914062 C 22.960938 -61.457031 23.191406 -60.886719 23.53125 -60.203125 C 23.761719 -59.515625 23.875 -58.832031 23.988281 -58.03125 L 23.988281 -56.660156 C 23.988281 -55.746094 23.988281 -55.175781 23.988281 -54.832031 C 23.875 -54.488281 23.761719 -53.804688 23.417969 -53.003906 C 23.304688 -52.546875 23.074219 -52.207031 22.960938 -52.089844 C 22.734375 -51.863281 22.503906 -51.75 22.390625 -51.632812 C 22.277344 -51.519531 22.160156 -51.40625 22.046875 -51.292969 C 21.933594 -51.175781 21.703125 -51.175781 21.476562 -51.0625 C 21.246094 -50.949219 21.019531 -50.835938 20.675781 -50.71875 C 20.332031 -50.605469 19.992188 -50.492188 19.648438 -50.378906 C 19.304688 -50.261719 18.847656 -50.148438 18.277344 -50.035156 Z M 31.070312 -14.050781 C 32.441406 -14.050781 33.585938 -14.507812 34.386719 -15.421875 C 35.183594 -16.335938 35.527344 -17.363281 35.527344 -18.390625 C 35.527344 -18.964844 35.414062 -19.648438 35.183594 -20.332031 C 35.070312 -21.019531 34.957031 -21.476562 34.839844 -21.703125 C 34.726562 -21.820312 34.613281 -22.046875 34.5 -22.277344 C 34.386719 -22.390625 34.269531 -22.617188 34.15625 -22.960938 C 33.929688 -23.648438 33.8125 -23.988281 33.699219 -24.105469 C 33.355469 -25.015625 33.015625 -25.929688 32.558594 -26.730469 C 31.871094 -28.558594 30.957031 -30.273438 29.816406 -31.871094 C 29.246094 -33.242188 28.214844 -34.726562 26.730469 -36.441406 C 26.160156 -37.355469 25.589844 -38.15625 24.902344 -38.726562 C 24.105469 -39.753906 23.191406 -40.667969 22.160156 -41.46875 L 22.617188 -41.582031 C 23.648438 -41.925781 24.675781 -42.382812 25.929688 -42.953125 L 26.386719 -43.179688 C 27.988281 -44.210938 29.246094 -45.238281 30.042969 -46.265625 C 31.414062 -48.09375 32.214844 -49.691406 32.328125 -50.949219 C 32.898438 -52.320312 33.128906 -53.917969 33.128906 -55.632812 L 33.128906 -58.144531 C 33.128906 -59.058594 33.015625 -59.972656 32.785156 -60.886719 C 32.558594 -61.800781 32.328125 -62.714844 31.984375 -63.628906 C 31.644531 -64.542969 31.300781 -65.226562 30.957031 -65.800781 C 30.5 -66.828125 30.042969 -67.628906 29.585938 -68.199219 C 29.015625 -69.113281 28.445312 -69.796875 27.988281 -70.253906 C 26.730469 -71.96875 25.472656 -73.109375 24.21875 -73.683594 C 23.53125 -74.253906 22.847656 -74.710938 22.046875 -74.9375 C 19.761719 -76.082031 17.25 -76.652344 14.394531 -76.652344 C 12.910156 -76.652344 11.308594 -76.308594 9.597656 -75.625 C 9.480469 -75.625 9.367188 -75.625 9.253906 -75.507812 C 9.140625 -75.394531 9.140625 -75.394531 9.023438 -75.394531 C 8.226562 -76.308594 7.082031 -76.765625 5.710938 -76.765625 C 4.339844 -76.765625 3.199219 -76.195312 2.171875 -75.167969 C 1.484375 -74.367188 1.140625 -73.339844 1.140625 -72.195312 L 1.257812 -70.941406 L 1.371094 -70.824219 C 1.371094 -70.710938 1.371094 -70.710938 1.484375 -70.597656 C 1.484375 -70.484375 1.484375 -70.367188 1.484375 -70.253906 C 1.484375 -70.027344 1.484375 -69.796875 1.597656 -69.683594 C 1.597656 -69.570312 1.597656 -69.339844 1.597656 -69.113281 C 1.597656 -68.882812 1.597656 -68.65625 1.714844 -68.425781 C 1.714844 -68.199219 1.714844 -67.628906 1.714844 -66.828125 C 1.714844 -66.027344 1.714844 -65.457031 1.828125 -65.226562 C 1.828125 -64.886719 1.828125 -64.3125 1.828125 -63.285156 C 1.828125 -62.257812 1.828125 -61.6875 1.941406 -61.34375 C 1.941406 -61 1.941406 -59.746094 1.941406 -57.6875 C 1.941406 -55.632812 1.941406 -54.035156 1.828125 -52.890625 C 1.828125 -45.007812 1.828125 -40.324219 1.714844 -39.070312 C 1.597656 -38.496094 1.597656 -38.039062 1.597656 -37.699219 C 1.597656 -37.242188 1.597656 -36.785156 1.597656 -36.328125 C 1.484375 -35.871094 1.484375 -35.414062 1.484375 -34.957031 C 1.484375 -34.386719 1.484375 -33.929688 1.484375 -33.472656 C 1.371094 -33.015625 1.371094 -32.441406 1.371094 -31.871094 C 1.371094 -31.300781 1.371094 -30.386719 1.257812 -29.246094 L 1.257812 -20.789062 C 1.371094 -20.5625 1.371094 -20.21875 1.371094 -19.875 C 1.484375 -17.933594 2.398438 -16.5625 3.882812 -15.765625 C 4.683594 -15.421875 5.367188 -15.308594 6.054688 -15.308594 C 6.855469 -15.308594 7.652344 -15.535156 8.453125 -15.992188 C 9.824219 -16.792969 10.507812 -18.050781 10.507812 -19.761719 C 10.507812 -20.789062 10.507812 -21.246094 10.394531 -21.363281 L 10.394531 -29.015625 L 10.738281 -37.8125 C 11.195312 -37.699219 11.765625 -37.46875 12.453125 -37.125 L 12.792969 -37.011719 C 13.824219 -36.554688 14.738281 -35.984375 15.308594 -35.414062 C 15.765625 -35.183594 16.222656 -34.726562 16.679688 -34.15625 C 17.136719 -33.929688 17.59375 -33.472656 18.050781 -32.671875 C 18.507812 -32.214844 18.964844 -31.644531 19.535156 -30.957031 C 20.105469 -30.273438 20.5625 -29.585938 20.90625 -29.015625 C 21.246094 -28.445312 21.703125 -27.757812 22.046875 -27.074219 C 22.847656 -25.816406 23.648438 -24.445312 24.21875 -22.960938 C 24.5625 -22.503906 24.902344 -21.589844 25.472656 -20.105469 L 25.703125 -19.535156 C 26.046875 -19.078125 26.160156 -18.621094 26.160156 -18.277344 C 26.386719 -18.164062 26.503906 -17.820312 26.617188 -17.363281 C 27.417969 -15.191406 28.902344 -14.164062 31.070312 -14.050781 Z M 31.070312 -14.050781 "/></g></g></g><g fill="#ffffff" fill-opacity="1"><g transform="translate(115.146047, 195.696109)"><g><path d="M 6.625 -18.847656 C 7.425781 -18.847656 8.226562 -19.078125 9.023438 -19.421875 L 10.28125 -19.992188 C 10.738281 -20.105469 11.082031 -20.105469 11.421875 -20.21875 C 11.652344 -20.21875 11.878906 -20.21875 11.996094 -20.21875 C 12.109375 -20.21875 12.335938 -20.332031 12.566406 -20.449219 C 12.792969 -20.5625 13.023438 -20.5625 13.367188 -20.675781 C 13.59375 -20.675781 13.824219 -20.675781 13.9375 -20.675781 C 14.050781 -20.675781 14.28125 -20.789062 14.621094 -20.90625 C 14.964844 -21.019531 15.191406 -21.019531 15.535156 -21.132812 C 15.765625 -21.132812 15.992188 -21.132812 16.105469 -21.132812 C 16.449219 -21.246094 17.59375 -21.476562 19.535156 -21.820312 L 19.761719 -21.820312 C 20.5625 -22.046875 21.589844 -22.160156 22.617188 -22.160156 C 22.847656 -22.277344 23.074219 -22.277344 23.304688 -22.390625 C 23.53125 -22.390625 24.105469 -22.390625 25.015625 -22.503906 L 26.273438 -22.617188 C 26.960938 -22.847656 27.875 -22.960938 29.128906 -22.960938 C 31.1875 -23.191406 32.558594 -24.105469 33.128906 -25.703125 C 33.472656 -26.386719 33.585938 -27.074219 33.585938 -27.644531 C 33.585938 -28.558594 33.242188 -29.472656 32.671875 -30.273438 C 31.871094 -31.527344 30.613281 -32.101562 28.902344 -32.101562 L 27.644531 -31.984375 C 26.386719 -31.984375 25.359375 -31.871094 24.332031 -31.644531 L 20.332031 -31.1875 C 17.933594 -30.84375 16.335938 -30.5 15.765625 -30.386719 C 15.308594 -30.386719 14.738281 -30.273438 14.164062 -30.042969 L 13.136719 -29.929688 C 12.792969 -29.929688 12.222656 -29.816406 11.539062 -29.472656 C 11.308594 -29.472656 11.082031 -29.472656 10.964844 -29.359375 L 11.308594 -32.785156 C 11.421875 -33.585938 11.539062 -34.957031 11.539062 -36.785156 L 11.539062 -44.550781 L 12.109375 -44.664062 C 13.367188 -45.007812 14.164062 -45.121094 14.394531 -45.121094 C 14.621094 -45.121094 14.851562 -45.121094 14.964844 -45.238281 C 15.078125 -45.238281 15.308594 -45.238281 15.421875 -45.351562 C 15.535156 -45.351562 15.765625 -45.351562 15.878906 -45.351562 C 16.449219 -45.578125 17.019531 -45.695312 17.59375 -45.695312 C 17.707031 -45.695312 17.933594 -45.695312 18.277344 -45.808594 C 18.507812 -45.808594 18.847656 -45.808594 19.191406 -45.808594 C 19.535156 -45.808594 19.761719 -45.808594 20.105469 -45.921875 C 20.449219 -45.921875 21.132812 -45.921875 22.160156 -45.921875 C 24.332031 -46.035156 25.703125 -46.835938 26.386719 -48.320312 C 26.730469 -49.121094 26.960938 -49.804688 26.960938 -50.605469 C 26.960938 -51.40625 26.730469 -52.089844 26.273438 -52.890625 C 25.472656 -54.375 24.105469 -55.0625 22.277344 -55.0625 C 20.789062 -55.0625 19.992188 -55.0625 19.648438 -55.0625 C 19.304688 -54.945312 18.964844 -54.945312 18.734375 -54.945312 C 17.820312 -54.945312 17.136719 -54.832031 16.5625 -54.71875 C 15.421875 -54.71875 14.621094 -54.605469 14.050781 -54.375 C 13.9375 -54.261719 13.824219 -54.261719 13.707031 -54.261719 C 13.480469 -54.148438 13.25 -54.148438 13.136719 -54.148438 C 13.023438 -54.035156 12.910156 -54.035156 12.910156 -54.035156 C 12.792969 -54.035156 12.335938 -53.917969 11.539062 -53.804688 C 11.539062 -62.828125 11.539062 -67.628906 11.539062 -68.085938 C 11.421875 -68.425781 11.421875 -68.882812 11.421875 -69.226562 C 11.878906 -69.226562 12.453125 -69.339844 13.023438 -69.570312 L 14.394531 -69.910156 C 14.851562 -70.140625 15.308594 -70.253906 15.878906 -70.253906 C 16.90625 -70.597656 18.847656 -70.710938 21.703125 -70.710938 C 22.277344 -70.710938 22.617188 -70.710938 22.734375 -70.710938 C 22.847656 -70.597656 23.988281 -70.597656 26.046875 -70.597656 C 28.101562 -70.710938 29.472656 -71.511719 30.273438 -72.996094 C 30.730469 -73.796875 30.957031 -74.480469 30.957031 -75.28125 C 30.957031 -76.082031 30.730469 -76.765625 30.273438 -77.566406 C 29.472656 -79.050781 28.214844 -79.734375 26.386719 -79.734375 L 22.503906 -79.734375 C 21.933594 -79.851562 21.363281 -79.851562 20.789062 -79.851562 L 17.707031 -79.734375 C 17.363281 -79.734375 16.222656 -79.621094 14.28125 -79.277344 C 13.480469 -79.164062 12.792969 -79.050781 12.222656 -78.820312 L 11.996094 -78.707031 C 11.539062 -78.59375 11.082031 -78.59375 10.738281 -78.480469 C 10.394531 -78.367188 10.050781 -78.25 9.9375 -78.136719 C 9.023438 -78.9375 7.882812 -79.394531 6.625 -79.394531 L 6.167969 -79.394531 C 5.253906 -79.394531 4.339844 -78.9375 3.542969 -78.136719 C 2.628906 -77.222656 2.171875 -76.082031 2.171875 -74.824219 C 2.171875 -74.59375 2.171875 -73.566406 2.285156 -71.738281 C 2.285156 -69.910156 2.285156 -68.769531 2.398438 -68.425781 C 2.398438 -68.085938 2.398438 -62.488281 2.398438 -51.863281 C 2.398438 -40.78125 2.285156 -34.5 2.171875 -33.242188 C 2.171875 -32.558594 2.054688 -32.101562 1.941406 -31.757812 C 1.941406 -31.070312 1.714844 -28.902344 1.257812 -25.246094 L 1.257812 -24.332031 C 1.257812 -22.847656 1.828125 -21.589844 2.855469 -20.675781 C 3.882812 -19.421875 5.140625 -18.847656 6.625 -18.847656 Z M 6.625 -18.847656 "/></g></g></g><g fill="#ffffff" fill-opacity="1"><g transform="translate(149.642503, 195.696109)"><g><path d="M 26.730469 -62.945312 L 26.503906 -63.171875 C 26.503906 -63.285156 26.273438 -63.742188 25.816406 -64.3125 C 25.246094 -64.886719 24.5625 -65.34375 23.761719 -65.683594 L 23.304688 -65.914062 C 22.390625 -66.484375 21.589844 -66.941406 21.019531 -67.054688 C 20.789062 -67.171875 20.449219 -67.285156 19.992188 -67.285156 L 19.648438 -67.398438 C 19.304688 -67.398438 18.847656 -67.285156 18.390625 -67.054688 C 18.050781 -67.054688 17.476562 -66.714844 16.5625 -66.027344 C 16.449219 -65.914062 16.335938 -65.800781 16.222656 -65.683594 C 16.105469 -65.570312 15.878906 -65.34375 15.765625 -65.226562 C 15.648438 -65 15.421875 -64.769531 15.308594 -64.65625 C 15.191406 -64.429688 14.964844 -64.199219 14.738281 -63.859375 C 14.394531 -63.515625 14.050781 -62.714844 13.59375 -61.6875 C 13.480469 -61.34375 13.25 -61 13.136719 -60.660156 C 12.910156 -60.203125 12.679688 -59.515625 12.453125 -58.71875 C 12.222656 -58.261719 11.996094 -57.574219 11.765625 -56.660156 L 11.421875 -55.289062 C 11.082031 -53.804688 10.851562 -52.777344 10.851562 -52.433594 C 10.738281 -52.089844 10.738281 -51.632812 10.625 -51.0625 C 10.394531 -49.347656 10.28125 -47.863281 10.28125 -46.609375 C 10.28125 -45.578125 10.28125 -44.78125 10.394531 -44.324219 L 10.738281 -40.554688 C 10.964844 -39.640625 11.082031 -38.953125 11.195312 -38.382812 C 11.195312 -37.8125 11.308594 -37.355469 11.421875 -37.011719 C 11.539062 -36.667969 11.539062 -36.328125 11.652344 -35.984375 C 11.765625 -35.640625 11.878906 -35.183594 11.996094 -34.613281 L 12.453125 -33.472656 C 12.792969 -32.898438 13.023438 -32.558594 13.136719 -32.214844 C 13.25 -31.871094 13.367188 -31.527344 13.480469 -31.300781 C 13.59375 -30.957031 13.824219 -30.613281 14.164062 -30.15625 C 14.507812 -29.699219 15.191406 -28.902344 16.335938 -27.757812 C 16.449219 -27.644531 16.679688 -27.644531 16.90625 -27.53125 C 17.019531 -27.417969 17.25 -27.300781 17.59375 -27.1875 C 17.820312 -27.074219 18.050781 -27.074219 18.390625 -26.960938 C 18.621094 -26.84375 18.847656 -26.84375 19.078125 -26.84375 C 19.191406 -26.730469 19.304688 -26.730469 19.421875 -26.730469 L 19.761719 -26.730469 C 20.675781 -26.960938 21.363281 -27.1875 21.933594 -27.53125 C 23.417969 -28.332031 24.445312 -29.128906 25.132812 -29.929688 L 25.929688 -30.613281 C 26.503906 -31.070312 26.960938 -31.644531 27.300781 -32.214844 C 28.332031 -33.929688 29.699219 -34.726562 31.414062 -34.726562 C 31.757812 -34.726562 32.214844 -34.613281 32.558594 -34.386719 C 34.726562 -33.472656 35.753906 -32.101562 35.753906 -30.15625 C 35.753906 -29.128906 35.414062 -28.101562 34.839844 -27.074219 L 34.613281 -26.617188 C 33.699219 -25.359375 32.558594 -24.105469 31.1875 -22.960938 L 29.699219 -21.703125 C 28.558594 -20.90625 27.757812 -20.332031 27.300781 -20.105469 C 26.84375 -19.761719 26.386719 -19.535156 25.929688 -19.304688 C 23.761719 -18.050781 21.476562 -17.476562 19.191406 -17.476562 C 18.277344 -17.59375 17.363281 -17.820312 16.335938 -17.933594 C 15.308594 -18.050781 14.28125 -18.390625 13.367188 -18.734375 L 12.335938 -19.421875 C 9.480469 -21.363281 7.195312 -23.761719 5.710938 -26.617188 C 5.367188 -27.074219 5.140625 -27.644531 4.914062 -28.214844 C 4.570312 -28.789062 4.339844 -29.359375 4.113281 -29.929688 L 3.769531 -30.613281 C 3.085938 -32.558594 2.628906 -34.042969 2.511719 -35.070312 L 2.171875 -36.441406 C 1.941406 -37.582031 1.597656 -39.980469 1.257812 -43.636719 C 1.140625 -44.324219 1.140625 -45.351562 1.140625 -46.609375 L 1.140625 -48.4375 C 1.257812 -49.234375 1.371094 -50.148438 1.371094 -50.949219 C 1.484375 -52.320312 1.597656 -53.234375 1.714844 -53.804688 C 1.828125 -54.261719 1.828125 -54.71875 1.941406 -55.289062 C 2.054688 -55.746094 2.171875 -56.203125 2.285156 -56.660156 L 3.769531 -61.800781 L 5.027344 -65 C 5.367188 -65.570312 5.710938 -66.140625 5.824219 -66.714844 C 6.28125 -67.628906 6.738281 -68.3125 7.082031 -68.882812 C 7.425781 -69.339844 7.652344 -69.683594 7.882812 -70.027344 C 8.683594 -71.28125 9.710938 -72.3125 10.851562 -73.226562 C 12.679688 -74.59375 14.28125 -75.507812 15.648438 -75.964844 C 17.019531 -76.421875 18.390625 -76.652344 19.875 -76.652344 C 20.449219 -76.652344 21.019531 -76.539062 21.476562 -76.421875 C 22.503906 -76.308594 23.417969 -76.082031 24.105469 -75.738281 C 24.902344 -75.507812 25.589844 -75.28125 26.160156 -74.9375 L 26.503906 -74.824219 C 27.757812 -74.253906 28.671875 -73.683594 29.246094 -73.109375 C 30.5 -72.3125 31.414062 -71.625 31.757812 -71.054688 C 32.214844 -70.824219 32.671875 -70.484375 33.015625 -69.910156 C 33.355469 -69.683594 33.472656 -69.570312 33.585938 -69.453125 C 33.585938 -69.339844 33.585938 -69.226562 33.585938 -69.113281 C 34.386719 -68.3125 34.839844 -67.285156 34.839844 -66.140625 L 34.839844 -65.457031 C 34.839844 -63.972656 33.929688 -62.714844 32.101562 -61.6875 C 31.527344 -61.34375 30.957031 -61.230469 30.386719 -61.230469 C 29.015625 -61.230469 27.757812 -61.800781 26.730469 -62.945312 Z M 26.730469 -62.945312 "/></g></g></g><g fill="#ffffff" fill-opacity="1"><g transform="translate(186.537714, 195.696109)"><g><path d="M 30.957031 -18.050781 C 32.214844 -18.050781 33.355469 -18.621094 34.5 -19.648438 C 35.183594 -20.332031 35.527344 -21.132812 35.527344 -22.160156 L 35.527344 -22.734375 C 35.527344 -23.988281 35.070312 -25.132812 34.15625 -26.273438 C 33.929688 -26.503906 33.699219 -26.730469 33.585938 -27.074219 C 33.242188 -27.644531 32.898438 -28.214844 32.558594 -28.558594 C 32.558594 -28.789062 32.101562 -29.472656 31.300781 -30.613281 L 31.1875 -30.84375 C 31.1875 -30.957031 30.957031 -31.300781 30.613281 -31.644531 L 29.472656 -33.128906 C 29.128906 -33.699219 28.902344 -34.15625 28.789062 -34.386719 C 28.671875 -34.613281 28.558594 -34.839844 28.445312 -34.957031 C 28.332031 -35.070312 28.101562 -35.296875 27.988281 -35.640625 C 27.757812 -35.984375 27.53125 -36.210938 27.300781 -36.441406 C 26.046875 -38.496094 25.015625 -39.867188 24.332031 -40.4375 L 22.960938 -42.265625 L 21.589844 -43.867188 C 21.589844 -43.980469 21.476562 -44.210938 21.363281 -44.324219 C 21.246094 -44.4375 21.132812 -44.4375 21.019531 -44.550781 C 20.789062 -45.007812 20.5625 -45.351562 20.449219 -45.578125 C 20.21875 -45.695312 19.992188 -45.921875 19.875 -46.265625 C 19.648438 -46.492188 19.421875 -46.722656 19.078125 -47.066406 C 18.507812 -47.980469 18.050781 -48.550781 17.820312 -48.777344 C 17.476562 -49.007812 17.25 -49.234375 17.136719 -49.464844 C 17.019531 -49.578125 16.90625 -49.691406 16.792969 -49.804688 L 17.820312 -50.949219 C 18.390625 -51.519531 18.847656 -52.089844 19.191406 -52.433594 C 19.535156 -52.777344 19.761719 -53.234375 19.992188 -53.578125 C 20.21875 -53.917969 20.449219 -54.148438 20.675781 -54.375 L 22.160156 -56.433594 C 22.847656 -57.230469 23.304688 -57.804688 23.417969 -58.261719 C 24.445312 -59.746094 25.246094 -61 25.589844 -61.914062 C 25.703125 -62.257812 26.046875 -62.714844 26.386719 -63.285156 C 26.730469 -63.859375 27.074219 -64.542969 27.417969 -65.34375 C 27.757812 -66.140625 27.988281 -66.714844 28.101562 -67.054688 L 28.789062 -68.65625 C 29.128906 -69.453125 29.359375 -69.910156 29.359375 -70.140625 C 29.472656 -70.253906 29.929688 -71.167969 30.5 -72.652344 C 31.070312 -74.136719 31.300781 -75.394531 31.300781 -76.421875 C 31.300781 -77.566406 30.84375 -78.59375 29.929688 -79.394531 C 29.015625 -80.191406 27.875 -80.648438 26.503906 -80.648438 C 24.105469 -80.648438 22.617188 -79.277344 22.160156 -76.539062 C 22.160156 -76.421875 22.046875 -76.308594 22.046875 -76.195312 C 22.046875 -76.082031 21.933594 -75.964844 21.933594 -75.851562 C 21.820312 -75.507812 21.703125 -75.28125 21.589844 -75.050781 C 21.476562 -74.710938 21.363281 -74.480469 21.246094 -74.253906 C 21.132812 -74.023438 21.019531 -73.796875 21.019531 -73.566406 C 20.90625 -73.339844 20.675781 -72.882812 20.332031 -72.195312 L 18.847656 -68.65625 L 18.277344 -67.628906 C 18.050781 -67.054688 17.59375 -66.027344 16.792969 -64.769531 L 14.507812 -61.34375 C 14.164062 -60.773438 13.367188 -59.746094 12.109375 -58.261719 C 11.765625 -57.6875 11.195312 -57.117188 10.394531 -56.316406 L 10.394531 -75.625 C 10.167969 -77.679688 9.253906 -79.050781 7.652344 -79.621094 C 6.96875 -79.964844 6.28125 -80.078125 5.710938 -80.078125 C 4.914062 -80.078125 4 -79.734375 3.199219 -79.164062 C 1.941406 -78.367188 1.257812 -76.996094 1.257812 -75.167969 L 1.257812 -32.898438 L 1.140625 -30.042969 L 1.140625 -23.191406 C 1.140625 -21.132812 1.941406 -19.648438 3.425781 -18.847656 C 4.226562 -18.390625 5.027344 -18.164062 5.824219 -18.164062 C 6.625 -18.164062 7.3125 -18.390625 7.996094 -18.734375 C 9.480469 -19.648438 10.28125 -21.132812 10.28125 -23.191406 L 10.28125 -29.929688 C 10.394531 -31.1875 10.394531 -35.527344 10.394531 -43.179688 C 10.625 -43.066406 10.738281 -42.953125 10.851562 -42.722656 C 11.082031 -42.609375 11.878906 -41.695312 13.136719 -39.867188 C 13.367188 -39.753906 13.59375 -39.410156 13.824219 -38.953125 C 14.164062 -38.613281 14.394531 -38.382812 14.394531 -38.15625 C 15.191406 -37.355469 16.105469 -36.210938 17.136719 -34.726562 C 17.59375 -34.386719 18.507812 -33.242188 19.761719 -31.300781 C 19.875 -31.1875 20.789062 -29.816406 22.390625 -27.300781 C 22.503906 -27.300781 22.734375 -27.074219 22.847656 -26.730469 L 22.960938 -26.503906 C 23.988281 -25.132812 24.675781 -24.105469 24.902344 -23.53125 L 26.160156 -21.589844 C 26.617188 -21.132812 26.84375 -20.789062 26.960938 -20.449219 C 28.101562 -18.847656 29.472656 -18.050781 30.957031 -18.050781 Z M 30.957031 -18.050781 "/></g></g></g></svg>