<svg xmlns="http://www.w3.org/2000/svg" xmlns:xlink="http://www.w3.org/1999/xlink" width="450" zoomAndPan="magnify" viewBox="0 0 337.5 187.499995" height="250" preserveAspectRatio="xMidYMid meet" version="1.0"><path fill="#af3c1a" d="M 113.386719 9.097656 C 113.375 9.105469 113.367188 9.113281 113.355469 9.117188 C 113.367188 9.117188 113.382812 9.109375 113.394531 9.109375 C 113.414062 9.101562 113.429688 9.09375 113.445312 9.082031 C 113.425781 9.089844 113.40625 9.09375 113.386719 9.097656 Z M 89.300781 13.480469 C 89.300781 13.488281 89.292969 13.488281 89.292969 13.492188 C 89.296875 13.492188 89.304688 13.492188 89.308594 13.492188 C 89.308594 13.488281 89.3125 13.480469 89.3125 13.472656 C 89.308594 13.476562 89.304688 13.480469 89.300781 13.480469 Z M 82.734375 17.378906 C 82.734375 17.378906 82.726562 17.378906 82.726562 17.378906 C 82.726562 17.378906 82.726562 17.378906 82.730469 17.382812 C 82.730469 17.382812 82.734375 17.382812 82.734375 17.382812 C 82.734375 17.378906 82.734375 17.378906 82.734375 17.378906 Z M 80.777344 17.617188 C 80.773438 17.625 80.773438 17.628906 80.769531 17.632812 C 80.773438 17.632812 80.777344 17.628906 80.785156 17.625 C 80.789062 17.625 80.792969 17.617188 80.796875 17.617188 C 80.789062 17.617188 80.785156 17.617188 80.777344 17.617188 Z M 80.777344 17.617188 " fill-opacity="1" fill-rule="nonzero"/><path fill="#af3c1a" d="M 151.492188 7.917969 C 148.484375 7.625 145.492188 7.023438 142.511719 6.722656 C 135.753906 6.046875 129 7.316406 122.238281 7.734375 C 120.882812 7.820312 119.515625 7.6875 118.132812 8.007812 C 117.785156 8.089844 116.816406 6.898438 115.773438 6.824219 C 111.027344 6.480469 106.332031 6.980469 101.613281 7.371094 C 99.054688 7.582031 96.648438 8.691406 93.988281 8.378906 C 92.851562 8.246094 91.351562 8.492188 90.753906 9.65625 C 90.273438 10.59375 91.199219 11.367188 91.921875 12.050781 C 92.230469 12.335938 92.246094 12.929688 92.394531 13.382812 C 92.078125 13.367188 91.644531 13.472656 91.464844 13.308594 C 90.648438 12.554688 89.992188 13.007812 89.3125 13.472656 C 89.3125 13.480469 89.308594 13.488281 89.308594 13.492188 C 89.304688 13.492188 89.296875 13.492188 89.292969 13.492188 C 88.972656 13.914062 88.144531 14.0625 88.382812 14.75 C 88.625 15.457031 89.382812 15.441406 90.027344 15.496094 C 90.144531 15.507812 90.269531 15.492188 90.386719 15.511719 C 90.972656 15.609375 91.558594 15.710938 92.140625 15.8125 C 91.855469 15.875 91.5625 16 91.28125 15.976562 C 91.015625 15.953125 90.773438 15.746094 90.5 15.667969 C 89.664062 15.429688 88.945312 15.941406 88.171875 16.035156 C 87.898438 16.070312 87.234375 15.390625 87.28125 15.125 C 87.453125 14.070312 88.277344 13.621094 89.292969 13.492188 C 89.292969 13.488281 89.300781 13.488281 89.300781 13.480469 C 89.304688 13.480469 89.308594 13.476562 89.3125 13.472656 C 89.410156 12.972656 89.449219 12.449219 89.632812 11.980469 C 89.773438 11.613281 90.191406 11.265625 89.816406 10.902344 C 89.234375 10.335938 88.457031 10.488281 87.746094 10.5625 C 87.308594 10.609375 87.078125 10.894531 87.023438 11.390625 C 86.890625 12.644531 86.363281 13.628906 84.992188 13.90625 C 84.878906 14.015625 84.769531 14.125 84.65625 14.234375 C 84.820312 14.5 84.941406 14.816406 85.167969 15.011719 C 85.375 15.191406 85.699219 15.234375 85.96875 15.339844 C 85.644531 15.339844 85.304688 15.269531 85 15.347656 C 82.597656 15.992188 80.011719 14.421875 77.660156 15.96875 C 77.238281 16.242188 76.4375 16.28125 76.535156 16.851562 C 76.644531 17.460938 77.128906 18.046875 77.570312 18.542969 C 77.902344 18.917969 78.355469 18.710938 78.789062 18.476562 C 79.417969 18.140625 80.105469 17.910156 80.769531 17.632812 C 80.773438 17.628906 80.773438 17.625 80.777344 17.621094 C 80.785156 17.621094 80.789062 17.617188 80.796875 17.617188 C 81.398438 17.199219 81.964844 16.496094 82.726562 17.378906 C 82.726562 17.378906 82.734375 17.378906 82.734375 17.378906 C 82.734375 17.378906 82.734375 17.378906 82.734375 17.382812 C 83.132812 17.367188 83.542969 17.289062 83.929688 17.34375 C 84.871094 17.484375 86.871094 16.382812 85.871094 18.941406 C 85.738281 19.277344 86.023438 19.660156 86.410156 19.78125 C 86.722656 19.882812 87.0625 19.890625 87.390625 19.941406 C 86.980469 20.414062 86.632812 20.976562 86.136719 21.335938 C 85.664062 21.679688 85.257812 21.09375 84.859375 20.980469 C 82.898438 20.425781 83.148438 18.742188 82.734375 17.382812 C 82.734375 17.382812 82.730469 17.382812 82.730469 17.382812 C 82.726562 17.378906 82.726562 17.378906 82.726562 17.378906 C 82.082031 17.457031 81.441406 17.535156 80.796875 17.617188 C 80.792969 17.621094 80.789062 17.625 80.785156 17.625 C 80.777344 17.628906 80.773438 17.632812 80.769531 17.632812 C 79.5 19.367188 77.039062 19.226562 75.769531 20.480469 C 74.320312 21.902344 73.027344 22.035156 71.394531 21.699219 C 70.488281 21.511719 69.621094 21.097656 68.738281 20.78125 C 69.738281 20.027344 70.488281 20.886719 71.304688 21.207031 C 72.632812 21.726562 73.371094 20.539062 74.347656 20.132812 C 75.101562 19.824219 74.523438 19.175781 74.238281 18.621094 C 73.992188 18.15625 74.535156 17.875 74.921875 17.640625 C 75.402344 17.347656 76.296875 17.277344 75.992188 16.449219 C 75.6875 15.632812 74.859375 15.984375 74.191406 15.902344 C 73.050781 15.765625 72.230469 16.644531 70.972656 16.515625 C 69.300781 16.339844 68.117188 15.476562 66.703125 14.914062 C 63.378906 13.589844 60.46875 15.214844 57.640625 16.800781 C 57.101562 17.101562 56.949219 17.519531 57.1875 18.128906 C 57.417969 18.71875 57.699219 19.144531 58.414062 19.015625 C 59.367188 18.84375 60.320312 18.675781 61.273438 18.503906 C 61.417969 18.476562 61.5625 18.441406 61.707031 18.410156 C 61.703125 18.523438 61.714844 18.644531 61.6875 18.753906 C 61.289062 20.644531 60.394531 21.390625 58.402344 20.492188 C 55.449219 19.15625 52.386719 19.113281 49.148438 19.558594 C 46.953125 19.859375 44.832031 21.386719 42.660156 20.609375 C 40.601562 19.871094 38.523438 19.492188 36.410156 19.25 C 33.1875 18.886719 30.136719 17.90625 26.652344 18.761719 C 23.769531 19.472656 21.015625 21.097656 17.863281 20.785156 C 17.199219 20.71875 16.796875 21.152344 16.988281 22.003906 C 17.25 23.160156 16.84375 24.039062 15.511719 23.460938 C 13.847656 22.738281 12.609375 23.566406 11.300781 24.261719 C 10.765625 24.546875 10.429688 25.050781 10.664062 25.683594 C 10.882812 26.289062 11.421875 26.332031 11.984375 26.273438 C 12.425781 26.230469 12.878906 26.167969 13.316406 26.210938 C 13.769531 26.257812 14.601562 25.953125 14.597656 26.394531 C 14.59375 26.972656 13.742188 27.101562 13.210938 27.042969 C 10.371094 26.730469 8.199219 28.371094 5.832031 29.460938 C 4.074219 30.273438 5.40625 31.578125 5.34375 32.617188 C 5.292969 33.460938 6.15625 33.070312 6.679688 33.074219 C 6.925781 33.078125 7.171875 33.253906 7.417969 33.355469 C 7.214844 33.527344 7.039062 33.773438 6.804688 33.867188 C 5.714844 34.300781 4.59375 34.660156 3.519531 35.128906 C 3.078125 35.320312 2.683594 35.773438 2.941406 36.316406 C 3.207031 36.867188 3.703125 36.5625 4.121094 36.449219 C 5.292969 36.132812 6.570312 36.019531 7.613281 35.464844 C 9.277344 34.574219 11.207031 36.15625 12.722656 34.726562 C 13.296875 34.179688 13.867188 33.621094 14.441406 33.070312 C 15.6875 31.871094 17.207031 33.089844 18.644531 32.558594 C 20.464844 31.890625 22.234375 30.570312 24.53125 31.757812 C 26.207031 32.625 28.503906 32.5 28.167969 35.355469 C 28.109375 35.855469 28.332031 36.601562 28.695312 36.910156 C 30.230469 38.207031 30.140625 40.714844 29.625 41.378906 C 28.273438 43.117188 28.78125 44.394531 29.347656 46.011719 C 29.523438 46.503906 29.128906 47.257812 28.855469 47.828125 C 27.578125 50.507812 25.160156 52.394531 23.847656 55.097656 C 22.941406 56.960938 22.496094 63.207031 23.996094 64.308594 C 26.160156 65.898438 25.808594 67.9375 26.175781 70.023438 C 26.390625 71.273438 26.386719 73.34375 26.707031 73.597656 C 28.671875 75.144531 28.5 77.789062 30.117188 79.421875 C 30.625 79.9375 31.089844 80.183594 31.6875 79.832031 C 32.285156 79.476562 32.3125 78.835938 31.941406 78.339844 C 30.085938 75.835938 30.257812 72.597656 28.855469 69.933594 C 28.707031 69.65625 28.933594 69.167969 29.035156 68.789062 C 29.050781 68.734375 29.421875 68.6875 29.441406 68.726562 C 29.59375 69.042969 29.804688 69.378906 29.808594 69.714844 C 29.84375 72.53125 31.679688 74.613281 32.910156 76.882812 C 34.003906 78.894531 35.953125 80.46875 34.867188 83.144531 C 34.648438 83.679688 35.125 84.089844 35.515625 84.480469 C 36.523438 85.488281 37.769531 86.117188 38.960938 86.863281 C 41.324219 88.339844 43.480469 90.265625 46.605469 89.320312 C 47.277344 89.121094 47.664062 89.550781 47.984375 90.058594 C 48.828125 91.394531 50.003906 92.136719 51.578125 92.484375 C 53.28125 92.867188 55.265625 93.34375 55.773438 95.242188 C 56.296875 97.222656 57.742188 98.378906 59.144531 99.292969 C 60.214844 99.992188 61.863281 102.515625 63.429688 99.503906 C 63.46875 99.429688 63.511719 99.363281 63.558594 99.308594 C 63.730469 98.542969 63.898438 97.78125 63.875 97.085938 C 63.578125 97.101562 63.273438 97.171875 62.960938 97.308594 C 60.816406 98.238281 59.820312 97.589844 59.6875 95.195312 C 59.621094 94.058594 59.710938 92.945312 60.058594 91.835938 C 60.679688 89.824219 59.527344 88.445312 57.382812 88.554688 C 56.855469 88.578125 56.332031 88.632812 55.804688 88.652344 C 55.101562 88.683594 54.691406 88.625 54.953125 87.640625 C 55.390625 85.984375 56.1875 84.523438 57.046875 83.085938 C 57.425781 82.453125 57.4375 81.9375 56.875 81.480469 C 55.558594 80.398438 52.492188 81.324219 51.984375 82.929688 C 51.402344 84.785156 48.691406 86.023438 47.113281 84.910156 C 45.566406 83.808594 44.417969 81.789062 45.015625 80.144531 C 46.238281 76.796875 46.722656 72.414062 51.167969 71.597656 C 53.972656 71.082031 56.859375 70.65625 59.699219 70.46875 C 61.378906 70.359375 63.441406 71.238281 62.765625 73.96875 C 62.636719 74.492188 63.082031 75.203125 63.367188 75.777344 C 63.691406 76.4375 64.144531 77.140625 64.960938 77.105469 C 65.832031 77.074219 66.042969 76.226562 66.289062 75.550781 C 66.640625 74.609375 66.625 73.613281 66.328125 72.679688 C 65.445312 69.90625 66.367188 68.03125 68.925781 66.738281 C 70.285156 66.046875 71.488281 65.042969 72.8125 64.273438 C 74.734375 63.160156 74.089844 60.636719 75.859375 59.242188 C 77.742188 57.761719 78.9375 55.386719 81.765625 55.316406 C 82.21875 55.304688 82.714844 55.125 82.800781 54.613281 C 83.144531 52.597656 84.941406 52.242188 86.363281 51.488281 C 86.769531 51.273438 87.527344 50.726562 87.371094 52.070312 C 87.265625 52.976562 88.242188 53.242188 88.855469 52.816406 C 90.535156 51.644531 92.523438 51.191406 94.308594 50.277344 C 95.179688 49.828125 95.828125 49.179688 95.226562 48.28125 C 94.539062 47.246094 93.957031 48.261719 93.363281 48.652344 C 92.613281 49.152344 91.808594 49.488281 91.113281 48.605469 C 90.46875 47.792969 90.996094 47.308594 91.683594 46.859375 C 92.394531 46.394531 92.339844 45.777344 92.035156 45.042969 C 91.90625 44.730469 91.042969 44.839844 91.539062 44.398438 C 92.089844 43.910156 92.25 44.605469 92.554688 44.976562 C 93.179688 45.738281 94.785156 46.207031 94.828125 45.535156 C 94.953125 43.519531 96.253906 44.4375 97.097656 44.21875 C 97.792969 44.035156 98.277344 43.238281 99.128906 43.515625 C 98.578125 44.210938 98.035156 44.914062 97.476562 45.601562 C 97.378906 45.722656 97.203125 45.773438 97.070312 45.867188 C 96.683594 46.136719 96.390625 46.480469 96.519531 46.984375 C 96.632812 47.453125 97.097656 47.445312 97.441406 47.636719 C 98.730469 48.375 100.332031 47.199219 101.410156 48.101562 C 103.042969 49.460938 103.476562 48.183594 103.464844 47.152344 C 103.453125 46.222656 104.300781 44.507812 102.074219 44.398438 C 101.289062 44.359375 101.445312 43.652344 101.988281 43.070312 C 103.820312 41.109375 103.199219 38.484375 100.710938 37.59375 C 100.128906 37.386719 99.625 36.949219 99.734375 36.511719 C 100.105469 34.972656 99.011719 33.714844 99.074219 32.265625 C 99.09375 31.804688 99.054688 31.332031 98.539062 31.152344 C 98.0625 30.988281 97.640625 31.222656 97.339844 31.558594 C 96.726562 32.226562 96.039062 32.769531 95.207031 33.132812 C 94.820312 33.300781 94.460938 33.464844 94.125 33.023438 C 93.824219 32.632812 94.050781 32.386719 94.277344 32.074219 C 94.902344 31.207031 94.625 30.589844 93.710938 30.128906 C 93.335938 29.9375 92.953125 29.671875 92.6875 29.347656 C 91.53125 27.917969 87.699219 28.367188 86.796875 29.910156 C 86.296875 30.757812 85.972656 31.859375 84.820312 32.261719 C 84.300781 32.441406 83.941406 32.984375 84.277344 33.550781 C 85.46875 35.554688 83.949219 36.117188 82.605469 36.730469 C 81.207031 37.375 79.527344 37.644531 79.65625 39.820312 C 79.683594 40.320312 79.132812 40.890625 78.761719 41.359375 C 78.539062 41.640625 78.1875 42.101562 77.761719 41.773438 C 77.421875 41.519531 77.269531 41.085938 77.410156 40.574219 C 77.972656 38.550781 78.183594 36.699219 75.203125 36.59375 C 74.894531 36.585938 74.542969 36.296875 74.304688 36.050781 C 73.28125 34.996094 72.191406 34.261719 70.640625 34.898438 C 70.507812 34.953125 70.308594 34.84375 70.140625 34.808594 C 70.855469 33.816406 69.609375 32.558594 70.929688 31.445312 C 74.347656 28.5625 78.929688 28.050781 82.445312 25.449219 C 82.703125 25.269531 82.964844 25.089844 83.230469 24.90625 C 84.253906 24.621094 85.261719 24.179688 86.304688 24.082031 C 88.890625 23.835938 90.035156 22.679688 89.964844 20.183594 C 89.953125 19.667969 90.253906 20.089844 90.414062 20.097656 C 91.785156 20.167969 92.816406 21.25 94.234375 21.328125 C 94.828125 21.359375 95.386719 22.085938 95.9375 22.527344 C 95.96875 22.550781 95.816406 22.945312 95.679688 23.003906 C 94.253906 23.597656 93.128906 24.917969 91.308594 24.585938 C 90.410156 24.421875 89.523438 24.910156 89.628906 26.011719 C 89.746094 27.1875 90.734375 27.050781 91.519531 26.851562 C 92.644531 26.566406 93.292969 26.9375 94.117188 27.78125 C 95 28.691406 96.300781 29.285156 97.523438 29.730469 C 98.394531 30.046875 98.636719 29.210938 98.660156 28.453125 C 98.660156 28.445312 98.867188 28.414062 98.96875 28.441406 C 101.414062 29.117188 101.078125 27.582031 100.824219 26.109375 C 100.761719 25.765625 100.566406 25.234375 100.707031 25.109375 C 101.125 24.75 101.367188 25.359375 101.710938 25.488281 C 102.804688 25.902344 103.761719 25.386719 104.71875 25.007812 C 105.132812 24.84375 105.304688 24.253906 105.039062 23.964844 C 103.652344 22.488281 102.375 20.917969 101.042969 19.410156 C 100.277344 18.539062 99.109375 17.871094 98.394531 16.871094 C 97.917969 16.203125 97.402344 15.886719 96.621094 15.800781 C 96.132812 15.746094 95.589844 16.125 95.148438 15.640625 C 95.644531 15.535156 96.136719 15.410156 96.636719 15.320312 C 97.21875 15.210938 97.984375 15.300781 98.042969 14.484375 C 98.097656 13.730469 97.390625 13.679688 96.847656 13.546875 C 96.699219 13.507812 96.5625 13.429688 96.421875 13.371094 C 96.617188 13.351562 96.847656 13.257812 97.003906 13.328125 C 99.140625 14.261719 100.992188 13.035156 102.679688 12.242188 C 106.105469 10.621094 109.789062 10.117188 113.355469 9.117188 C 113.367188 9.113281 113.375 9.105469 113.386719 9.097656 C 113.40625 9.09375 113.425781 9.089844 113.445312 9.085938 C 114.183594 8.746094 114.90625 8.347656 115.765625 8.457031 C 115.816406 8.464844 115.867188 8.492188 115.917969 8.511719 C 115.09375 8.703125 114.273438 8.890625 113.445312 9.085938 C 113.429688 9.09375 113.414062 9.101562 113.394531 9.109375 C 113.382812 9.109375 113.367188 9.117188 113.355469 9.117188 C 111.65625 10.367188 109.738281 10.9375 107.644531 10.988281 C 107.121094 11 106.523438 10.90625 106.234375 11.476562 C 105.917969 12.109375 106.453125 12.472656 106.765625 12.949219 C 107.628906 14.273438 108.8125 14.367188 110.152344 13.992188 C 112.496094 13.34375 114.699219 14.570312 114.636719 16.558594 C 114.621094 17.128906 114.027344 17.808594 114.203125 18.230469 C 114.792969 19.644531 113.75 20.8125 113.316406 21.679688 C 112.175781 23.964844 111.296875 25.917969 113.355469 28.0625 C 113.542969 28.257812 113.75 28.542969 113.753906 28.792969 C 113.8125 31.3125 116.234375 30.65625 117.507812 31.460938 C 118.613281 32.160156 119.375 30.8125 119.933594 29.976562 C 121.289062 27.96875 123.402344 26.335938 125.308594 25.714844 C 129.359375 24.394531 133.15625 22.25 137.523438 21.75 C 139.5 21.519531 141.777344 20.839844 141.890625 18.011719 C 141.898438 17.789062 142.273438 17.542969 142.519531 17.371094 C 143.796875 16.46875 145.503906 15.859375 144.925781 13.730469 C 144.839844 13.414062 145.035156 13.554688 145.179688 13.5625 C 146.816406 13.660156 146.984375 12.78125 146.324219 11.625 C 146.019531 11.085938 146.371094 11.128906 146.585938 10.957031 C 147.960938 9.855469 149.601562 9.710938 151.273438 9.613281 C 151.824219 9.582031 152.523438 9.457031 152.605469 8.785156 C 152.6875 8.089844 151.984375 7.964844 151.492188 7.917969 Z M 62.792969 22.140625 C 62.121094 22.25 62.335938 21.628906 62.183594 21.320312 C 62.054688 21.046875 62.191406 20.957031 62.628906 21 C 62.84375 21.195312 63.160156 21.480469 63.472656 21.765625 C 63.246094 21.894531 63.03125 22.101562 62.792969 22.140625 Z M 65.960938 22.519531 C 65.722656 22.285156 65.484375 22.046875 65.246094 21.816406 C 65.78125 21.578125 66.308594 21.332031 66.851562 21.109375 C 66.96875 21.0625 67.121094 21.105469 67.164062 21.105469 C 66.769531 21.570312 66.363281 22.042969 65.960938 22.519531 Z M 65.960938 22.519531 " fill-opacity="1" fill-rule="nonzero"/><path fill="#af3c1a" d="M 71.257812 11.332031 C 72.558594 11.269531 73.597656 10.902344 73.375 12.738281 C 73.285156 13.457031 74.523438 13.371094 75.0625 12.945312 C 76.277344 11.988281 77.074219 12.828125 77.941406 13.453125 C 78.292969 13.703125 78.316406 14.089844 78.070312 14.425781 C 77.453125 15.273438 76.605469 15.226562 75.664062 15.09375 C 74.921875 14.992188 74.074219 14.960938 73.394531 15.214844 C 70.507812 16.296875 68.230469 14.15625 65.613281 13.847656 C 65.460938 13.832031 65.195312 13.328125 65.261719 13.203125 C 65.417969 12.914062 65.710938 12.589844 66.011719 12.503906 C 67.832031 11.988281 69.59375 11.152344 71.257812 11.332031 Z M 71.257812 11.332031 " fill-opacity="1" fill-rule="nonzero"/><path fill="#af3c1a" d="M 141.257812 28.140625 C 139.574219 27.863281 137.753906 28.074219 137.773438 25.378906 C 137.789062 23.828125 138.738281 23.671875 139.417969 23.9375 C 141.21875 24.644531 142.835938 23.925781 144.519531 23.71875 C 145.953125 23.539062 146.871094 24.453125 147.25 25.488281 C 147.644531 26.566406 146.351562 26.628906 145.628906 26.996094 C 144.230469 27.703125 142.757812 28.035156 141.257812 28.140625 Z M 141.257812 28.140625 " fill-opacity="1" fill-rule="nonzero"/><path fill="#af3c1a" d="M 69.3125 83.9375 C 66.90625 85.007812 66.148438 81.929688 64.128906 81.4375 C 62.964844 81.152344 61.957031 80.714844 60.789062 81.210938 C 60.292969 81.417969 59.785156 81.425781 59.519531 80.890625 C 59.226562 80.308594 59.695312 80.011719 60.113281 79.738281 C 62.265625 78.339844 66.160156 78.796875 68.253906 80.746094 C 68.773438 81.230469 69.316406 81.589844 69.96875 81.847656 C 70.625 82.109375 71.453125 82.292969 71.410156 83.246094 C 71.382812 83.78125 70.742188 83.992188 69.3125 83.9375 Z M 69.3125 83.9375 " fill-opacity="1" fill-rule="nonzero"/><path fill="#af3c1a" d="M 84.992188 13.90625 C 84.878906 14.015625 84.769531 14.125 84.65625 14.234375 C 83.117188 14.65625 81.605469 15.757812 80.03125 14.234375 C 79.640625 13.855469 79.09375 13.640625 79.453125 13 C 79.792969 12.398438 80.355469 11.90625 81.039062 12.277344 C 81.78125 12.683594 82.410156 12.597656 83.097656 12.289062 C 82.875 11.929688 82.601562 11.59375 82.4375 11.214844 C 82.109375 10.453125 82.691406 10.195312 83.226562 9.992188 C 84.464844 9.523438 85.421875 10.160156 86.304688 10.890625 C 86.605469 11.140625 86.589844 11.792969 86.285156 11.84375 C 85.003906 12.0625 85.171875 13.070312 84.992188 13.90625 Z M 84.992188 13.90625 " fill-opacity="1" fill-rule="nonzero"/><path fill="#af3c1a" d="M 77.835938 85.527344 C 77.695312 85.742188 77.605469 85.980469 77.433594 86.121094 C 76.464844 86.921875 71.789062 86.921875 70.800781 86.148438 C 70.492188 85.90625 70.175781 85.378906 70.441406 85.265625 C 71.40625 84.847656 71.851562 83.570312 72.582031 83.402344 C 74.347656 83 76 83.855469 77.472656 84.878906 C 77.648438 85 77.703125 85.285156 77.835938 85.527344 Z M 77.835938 85.527344 " fill-opacity="1" fill-rule="nonzero"/><path fill="#af3c1a" d="M 82.441406 25.453125 C 82.703125 25.269531 82.96875 25.085938 83.230469 24.90625 C 83.949219 24.945312 84.683594 24.910156 85.386719 25.042969 C 86.304688 25.214844 87.03125 25.757812 86.867188 26.789062 C 86.679688 27.953125 85.757812 27.527344 85.019531 27.472656 C 84.578125 27.441406 84.125 27.460938 83.691406 27.535156 C 82.933594 27.664062 82.042969 28.34375 81.503906 27.375 C 81.015625 26.492188 82.09375 26.085938 82.441406 25.453125 Z M 82.441406 25.453125 " fill-opacity="1" fill-rule="nonzero"/><path fill="#af3c1a" d="M 76.527344 12.328125 C 75.792969 12.253906 74.785156 12.375 74.898438 11.554688 C 75.140625 9.832031 76.765625 10.640625 77.777344 10.355469 C 78.246094 10.226562 79.1875 10.328125 79.023438 11.0625 C 78.722656 12.390625 77.40625 12.117188 76.527344 12.328125 Z M 76.527344 12.328125 " fill-opacity="1" fill-rule="nonzero"/><path fill="#9f9b38" d="M 151.492188 7.917969 C 148.484375 7.625 145.492188 7.023438 142.511719 6.722656 C 135.753906 6.046875 129 7.316406 122.238281 7.734375 C 120.882812 7.820312 119.515625 7.691406 118.132812 8.007812 C 117.785156 8.089844 116.816406 6.898438 115.773438 6.824219 C 111.027344 6.484375 106.332031 6.980469 101.613281 7.371094 C 99.054688 7.582031 96.648438 8.691406 93.988281 8.378906 C 92.851562 8.246094 91.351562 8.492188 90.753906 9.65625 C 90.273438 10.59375 91.199219 11.367188 91.921875 12.050781 C 92.230469 12.339844 92.246094 12.933594 92.394531 13.382812 C 92.078125 13.367188 91.644531 13.476562 91.464844 13.308594 C 90.648438 12.554688 89.992188 13.011719 89.3125 13.476562 C 89.3125 13.480469 89.308594 13.488281 89.308594 13.492188 C 89.304688 13.492188 89.296875 13.492188 89.292969 13.492188 C 88.972656 13.914062 88.144531 14.0625 88.382812 14.75 C 88.625 15.457031 89.382812 15.441406 90.027344 15.496094 C 90.144531 15.507812 90.269531 15.492188 90.386719 15.511719 C 90.972656 15.609375 91.558594 15.710938 92.140625 15.8125 C 91.855469 15.875 91.5625 16 91.28125 15.976562 C 91.015625 15.953125 90.773438 15.746094 90.5 15.667969 C 89.664062 15.429688 88.945312 15.941406 88.171875 16.039062 C 87.898438 16.070312 87.234375 15.390625 87.28125 15.128906 C 87.453125 14.070312 88.277344 13.621094 89.292969 13.492188 C 89.292969 13.488281 89.300781 13.488281 89.300781 13.480469 C 89.304688 13.480469 89.308594 13.476562 89.3125 13.476562 C 89.410156 12.972656 89.449219 12.449219 89.632812 11.980469 C 89.773438 11.613281 90.191406 11.265625 89.816406 10.902344 C 89.234375 10.335938 88.457031 10.488281 87.746094 10.5625 C 87.308594 10.609375 87.078125 10.894531 87.023438 11.390625 C 86.890625 12.644531 86.363281 13.628906 84.992188 13.90625 C 84.878906 14.015625 84.769531 14.125 84.65625 14.234375 C 84.820312 14.5 84.941406 14.816406 85.167969 15.011719 C 85.375 15.191406 85.699219 15.238281 85.96875 15.339844 C 85.644531 15.339844 85.304688 15.269531 85 15.347656 C 82.597656 15.992188 80.011719 14.421875 77.660156 15.96875 C 77.238281 16.246094 76.4375 16.28125 76.535156 16.851562 C 76.644531 17.460938 77.128906 18.046875 77.570312 18.542969 C 77.902344 18.917969 78.355469 18.710938 78.789062 18.476562 C 79.417969 18.140625 80.105469 17.910156 80.769531 17.632812 C 80.773438 17.628906 80.773438 17.625 80.777344 17.621094 C 80.785156 17.621094 80.789062 17.617188 80.796875 17.617188 C 81.398438 17.199219 81.964844 16.496094 82.726562 17.378906 C 82.726562 17.378906 82.734375 17.378906 82.734375 17.378906 C 82.734375 17.378906 82.734375 17.378906 82.734375 17.382812 C 83.132812 17.367188 83.542969 17.289062 83.929688 17.34375 C 84.871094 17.484375 86.871094 16.382812 85.871094 18.941406 C 85.738281 19.277344 86.023438 19.660156 86.410156 19.78125 C 86.722656 19.882812 87.0625 19.890625 87.390625 19.941406 C 86.980469 20.414062 86.632812 20.976562 86.136719 21.335938 C 85.664062 21.679688 85.257812 21.09375 84.859375 20.980469 C 82.898438 20.425781 83.148438 18.742188 82.734375 17.382812 C 82.734375 17.382812 82.730469 17.382812 82.730469 17.382812 C 82.726562 17.378906 82.726562 17.378906 82.726562 17.378906 C 82.082031 17.457031 81.441406 17.535156 80.796875 17.617188 C 80.792969 17.621094 80.789062 17.625 80.785156 17.625 C 80.777344 17.628906 80.773438 17.632812 80.769531 17.632812 C 79.5 19.367188 77.039062 19.226562 75.769531 20.480469 C 74.320312 21.902344 73.027344 22.035156 71.394531 21.699219 C 70.488281 21.511719 69.621094 21.097656 68.738281 20.78125 C 69.738281 20.027344 70.488281 20.886719 71.304688 21.207031 C 72.632812 21.726562 73.371094 20.539062 74.347656 20.132812 C 75.101562 19.824219 74.523438 19.175781 74.238281 18.621094 C 73.992188 18.15625 74.535156 17.878906 74.921875 17.640625 C 75.402344 17.347656 76.296875 17.277344 75.992188 16.449219 C 75.6875 15.632812 74.859375 15.984375 74.191406 15.902344 C 73.050781 15.765625 72.230469 16.644531 70.972656 16.515625 C 69.300781 16.339844 68.117188 15.476562 66.703125 14.914062 C 63.378906 13.589844 60.46875 15.214844 57.640625 16.800781 C 57.101562 17.101562 56.949219 17.519531 57.1875 18.128906 C 57.417969 18.71875 57.699219 19.144531 58.414062 19.015625 C 59.367188 18.847656 60.320312 18.675781 61.273438 18.503906 C 61.417969 18.476562 61.5625 18.441406 61.707031 18.410156 C 61.703125 18.523438 61.714844 18.644531 61.6875 18.753906 C 61.289062 20.644531 60.394531 21.390625 58.402344 20.492188 C 55.449219 19.15625 52.386719 19.113281 49.148438 19.558594 C 46.953125 19.859375 44.832031 21.386719 42.660156 20.609375 C 40.601562 19.871094 38.523438 19.492188 36.410156 19.253906 C 33.1875 18.886719 30.136719 17.90625 26.652344 18.761719 C 23.769531 19.472656 21.015625 21.097656 17.863281 20.785156 C 17.199219 20.71875 16.796875 21.152344 16.988281 22.003906 C 17.25 23.160156 16.84375 24.039062 15.511719 23.460938 C 13.847656 22.738281 12.609375 23.566406 11.300781 24.261719 C 10.765625 24.546875 10.429688 25.050781 10.664062 25.683594 C 10.882812 26.289062 11.421875 26.332031 11.984375 26.273438 C 12.425781 26.230469 12.878906 26.167969 13.316406 26.210938 C 13.769531 26.257812 14.601562 25.953125 14.597656 26.394531 C 14.59375 26.972656 13.742188 27.101562 13.210938 27.042969 C 10.371094 26.730469 8.199219 28.371094 5.832031 29.460938 C 4.074219 30.273438 5.40625 31.578125 5.34375 32.617188 C 5.292969 33.460938 6.15625 33.070312 6.679688 33.074219 C 6.925781 33.078125 7.171875 33.257812 7.417969 33.355469 C 7.214844 33.527344 7.039062 33.773438 6.804688 33.867188 C 5.714844 34.300781 4.59375 34.660156 3.519531 35.128906 C 3.078125 35.324219 2.683594 35.773438 2.941406 36.316406 C 3.207031 36.867188 3.703125 36.5625 4.121094 36.449219 C 5.292969 36.132812 6.570312 36.019531 7.613281 35.464844 C 9.277344 34.574219 11.207031 36.15625 12.722656 34.726562 C 13.296875 34.179688 13.867188 33.621094 14.441406 33.070312 C 15.6875 31.871094 17.207031 33.089844 18.644531 32.558594 C 20.464844 31.890625 22.234375 30.570312 24.53125 31.757812 C 26.207031 32.625 28.503906 32.5 28.167969 35.355469 C 28.109375 35.859375 28.332031 36.601562 28.695312 36.910156 C 30.230469 38.207031 30.140625 40.714844 29.625 41.378906 C 28.273438 43.117188 28.78125 44.394531 29.347656 46.011719 C 29.523438 46.503906 29.128906 47.257812 28.855469 47.828125 C 27.578125 50.507812 25.160156 52.394531 23.847656 55.097656 C 22.941406 56.960938 22.496094 63.207031 23.996094 64.308594 C 26.160156 65.898438 25.808594 67.9375 26.175781 70.023438 C 26.390625 71.273438 26.386719 73.34375 26.707031 73.597656 C 28.671875 75.144531 28.5 77.789062 30.117188 79.421875 C 30.625 79.9375 31.089844 80.183594 31.6875 79.832031 C 32.285156 79.476562 32.3125 78.835938 31.941406 78.339844 C 30.085938 75.835938 30.257812 72.597656 28.855469 69.933594 C 28.707031 69.65625 28.933594 69.167969 29.035156 68.792969 C 29.050781 68.734375 29.421875 68.6875 29.441406 68.726562 C 29.59375 69.042969 29.804688 69.378906 29.808594 69.714844 C 29.84375 72.53125 31.679688 74.613281 32.910156 76.882812 C 34.003906 78.894531 35.953125 80.46875 34.867188 83.144531 C 34.648438 83.679688 35.125 84.089844 35.515625 84.480469 C 36.523438 85.488281 37.769531 86.121094 38.960938 86.863281 C 41.324219 88.339844 43.480469 90.265625 46.605469 89.320312 C 47.277344 89.121094 47.664062 89.550781 47.984375 90.058594 C 48.828125 91.394531 50.003906 92.136719 51.578125 92.484375 C 53.28125 92.867188 55.265625 93.34375 55.773438 95.242188 C 56.296875 97.222656 57.742188 98.378906 59.144531 99.292969 C 60.214844 99.992188 61.863281 102.515625 63.429688 99.503906 C 63.46875 99.429688 63.511719 99.363281 63.558594 99.308594 C 63.730469 98.542969 63.898438 97.78125 63.875 97.085938 C 63.578125 97.101562 63.273438 97.171875 62.960938 97.308594 C 60.816406 98.238281 59.820312 97.589844 59.6875 95.195312 C 59.621094 94.0625 59.710938 92.945312 60.058594 91.835938 C 60.679688 89.824219 59.527344 88.445312 57.382812 88.554688 C 56.855469 88.578125 56.332031 88.632812 55.804688 88.652344 C 55.101562 88.683594 54.691406 88.625 54.953125 87.640625 C 55.390625 85.984375 56.1875 84.523438 57.046875 83.085938 C 57.425781 82.453125 57.4375 81.9375 56.875 81.480469 C 55.558594 80.398438 52.492188 81.324219 51.984375 82.929688 C 51.402344 84.785156 48.691406 86.023438 47.113281 84.910156 C 45.566406 83.808594 44.417969 81.789062 45.015625 80.144531 C 46.238281 76.796875 46.722656 72.414062 51.167969 71.597656 C 53.972656 71.082031 56.859375 70.65625 59.699219 70.46875 C 61.378906 70.359375 63.441406 71.238281 62.765625 73.96875 C 62.636719 74.492188 63.082031 75.203125 63.367188 75.777344 C 63.691406 76.4375 64.144531 77.140625 64.960938 77.105469 C 65.832031 77.074219 66.042969 76.226562 66.289062 75.550781 C 66.640625 74.609375 66.625 73.613281 66.328125 72.679688 C 65.445312 69.90625 66.367188 68.03125 68.925781 66.738281 C 70.285156 66.046875 71.488281 65.042969 72.8125 64.273438 C 74.734375 63.160156 74.089844 60.636719 75.859375 59.242188 C 77.742188 57.761719 78.9375 55.386719 81.765625 55.316406 C 82.21875 55.304688 82.714844 55.125 82.800781 54.613281 C 83.144531 52.597656 84.941406 52.242188 86.363281 51.488281 C 86.769531 51.277344 87.527344 50.726562 87.371094 52.070312 C 87.265625 52.976562 88.242188 53.246094 88.855469 52.820312 C 90.535156 51.644531 92.523438 51.191406 94.308594 50.277344 C 95.179688 49.828125 95.828125 49.179688 95.226562 48.28125 C 94.539062 47.246094 93.957031 48.261719 93.363281 48.652344 C 92.613281 49.152344 91.808594 49.488281 91.113281 48.605469 C 90.46875 47.792969 90.996094 47.308594 91.683594 46.859375 C 92.394531 46.394531 92.339844 45.777344 92.035156 45.042969 C 91.90625 44.730469 91.042969 44.839844 91.539062 44.398438 C 92.089844 43.910156 92.25 44.605469 92.554688 44.976562 C 93.179688 45.738281 94.785156 46.207031 94.828125 45.535156 C 94.953125 43.523438 96.253906 44.4375 97.097656 44.21875 C 97.792969 44.035156 98.277344 43.238281 99.128906 43.515625 C 98.578125 44.210938 98.035156 44.914062 97.476562 45.601562 C 97.378906 45.722656 97.203125 45.773438 97.070312 45.867188 C 96.683594 46.136719 96.390625 46.480469 96.519531 46.984375 C 96.632812 47.453125 97.097656 47.445312 97.441406 47.636719 C 98.730469 48.375 100.332031 47.199219 101.410156 48.101562 C 103.042969 49.460938 103.476562 48.183594 103.464844 47.152344 C 103.453125 46.222656 104.300781 44.511719 102.074219 44.398438 C 101.289062 44.359375 101.445312 43.652344 101.988281 43.070312 C 103.820312 41.109375 103.199219 38.484375 100.710938 37.59375 C 100.128906 37.386719 99.625 36.949219 99.734375 36.511719 C 100.105469 34.972656 99.011719 33.714844 99.074219 32.265625 C 99.09375 31.804688 99.054688 31.332031 98.539062 31.152344 C 98.0625 30.988281 97.640625 31.222656 97.339844 31.558594 C 96.726562 32.226562 96.039062 32.773438 95.207031 33.132812 C 94.820312 33.300781 94.460938 33.464844 94.125 33.023438 C 93.824219 32.632812 94.050781 32.386719 94.277344 32.074219 C 94.902344 31.207031 94.625 30.589844 93.710938 30.128906 C 93.335938 29.9375 92.953125 29.671875 92.6875 29.347656 C 91.53125 27.917969 87.699219 28.367188 86.796875 29.910156 C 86.296875 30.757812 85.972656 31.863281 84.820312 32.261719 C 84.300781 32.441406 83.941406 32.984375 84.277344 33.550781 C 85.46875 35.554688 83.949219 36.117188 82.605469 36.730469 C 81.207031 37.375 79.527344 37.644531 79.65625 39.820312 C 79.683594 40.320312 79.132812 40.890625 78.761719 41.359375 C 78.539062 41.640625 78.1875 42.101562 77.761719 41.773438 C 77.421875 41.519531 77.269531 41.085938 77.410156 40.574219 C 77.972656 38.550781 78.183594 36.699219 75.203125 36.59375 C 74.894531 36.585938 74.542969 36.296875 74.304688 36.050781 C 73.28125 34.996094 72.191406 34.261719 70.640625 34.898438 C 70.507812 34.953125 70.308594 34.84375 70.140625 34.808594 C 70.855469 33.816406 69.609375 32.558594 70.929688 31.445312 C 74.347656 28.5625 78.929688 28.050781 82.445312 25.449219 C 82.703125 25.269531 82.964844 25.089844 83.230469 24.90625 C 84.253906 24.621094 85.261719 24.179688 86.304688 24.082031 C 88.890625 23.835938 90.035156 22.679688 89.964844 20.183594 C 89.953125 19.667969 90.253906 20.09375 90.414062 20.097656 C 91.785156 20.167969 92.816406 21.25 94.234375 21.328125 C 94.828125 21.359375 95.386719 22.085938 95.9375 22.527344 C 95.96875 22.550781 95.816406 22.945312 95.679688 23.003906 C 94.253906 23.597656 93.128906 24.917969 91.308594 24.585938 C 90.410156 24.421875 89.523438 24.910156 89.628906 26.011719 C 89.746094 27.1875 90.734375 27.050781 91.519531 26.851562 C 92.644531 26.566406 93.292969 26.9375 94.117188 27.78125 C 95 28.691406 96.300781 29.285156 97.523438 29.730469 C 98.394531 30.046875 98.636719 29.210938 98.660156 28.453125 C 98.660156 28.445312 98.867188 28.414062 98.96875 28.441406 C 101.414062 29.117188 101.078125 27.582031 100.824219 26.109375 C 100.761719 25.765625 100.566406 25.234375 100.707031 25.109375 C 101.125 24.75 101.367188 25.359375 101.710938 25.488281 C 102.804688 25.902344 103.761719 25.386719 104.71875 25.007812 C 105.132812 24.84375 105.304688 24.253906 105.039062 23.964844 C 103.652344 22.488281 102.375 20.917969 101.042969 19.410156 C 100.277344 18.539062 99.109375 17.871094 98.394531 16.871094 C 97.917969 16.203125 97.402344 15.886719 96.621094 15.800781 C 96.132812 15.746094 95.589844 16.125 95.148438 15.640625 C 95.644531 15.535156 96.136719 15.410156 96.636719 15.320312 C 97.21875 15.210938 97.984375 15.300781 98.042969 14.484375 C 98.097656 13.730469 97.390625 13.679688 96.847656 13.546875 C 96.699219 13.507812 96.5625 13.429688 96.421875 13.371094 C 96.617188 13.351562 96.847656 13.257812 97.003906 13.328125 C 99.140625 14.261719 100.992188 13.035156 102.679688 12.242188 C 106.105469 10.621094 109.789062 10.117188 113.355469 9.117188 C 113.367188 9.113281 113.375 9.105469 113.386719 9.097656 C 113.40625 9.09375 113.425781 9.089844 113.445312 9.085938 C 114.183594 8.746094 114.90625 8.347656 115.765625 8.457031 C 115.816406 8.464844 115.867188 8.492188 115.917969 8.511719 C 115.09375 8.703125 114.273438 8.890625 113.445312 9.085938 C 113.429688 9.09375 113.414062 9.101562 113.394531 9.109375 C 113.382812 9.109375 113.367188 9.117188 113.355469 9.117188 C 111.65625 10.371094 109.738281 10.9375 107.644531 10.988281 C 107.121094 11 106.523438 10.90625 106.234375 11.476562 C 105.917969 12.109375 106.453125 12.472656 106.765625 12.949219 C 107.628906 14.273438 108.8125 14.367188 110.152344 13.992188 C 112.496094 13.34375 114.699219 14.570312 114.636719 16.558594 C 114.621094 17.128906 114.027344 17.808594 114.203125 18.230469 C 114.792969 19.644531 113.75 20.8125 113.316406 21.679688 C 112.175781 23.964844 111.296875 25.917969 113.355469 28.0625 C 113.542969 28.257812 113.75 28.542969 113.753906 28.792969 C 113.8125 31.3125 116.234375 30.65625 117.507812 31.460938 C 118.613281 32.160156 119.375 30.8125 119.933594 29.976562 C 121.289062 27.96875 123.402344 26.335938 125.308594 25.714844 C 129.359375 24.394531 133.15625 22.25 137.523438 21.75 C 139.5 21.519531 141.777344 20.839844 141.890625 18.011719 C 141.898438 17.789062 142.273438 17.542969 142.519531 17.371094 C 143.796875 16.46875 145.503906 15.859375 144.925781 13.734375 C 144.839844 13.414062 145.035156 13.554688 145.179688 13.5625 C 146.816406 13.660156 146.984375 12.78125 146.324219 11.625 C 146.019531 11.085938 146.371094 11.128906 146.585938 10.957031 C 147.960938 9.855469 149.601562 9.710938 151.273438 9.613281 C 151.824219 9.582031 152.523438 9.457031 152.605469 8.785156 C 152.6875 8.089844 151.984375 7.964844 151.492188 7.917969 Z M 62.792969 22.140625 C 62.121094 22.25 62.335938 21.628906 62.183594 21.320312 C 62.054688 21.046875 62.191406 20.957031 62.628906 21 C 62.84375 21.195312 63.160156 21.480469 63.472656 21.765625 C 63.246094 21.894531 63.03125 22.101562 62.792969 22.140625 Z M 65.960938 22.519531 C 65.722656 22.285156 65.484375 22.046875 65.246094 21.816406 C 65.78125 21.578125 66.308594 21.332031 66.851562 21.109375 C 66.96875 21.0625 67.121094 21.105469 67.164062 21.105469 C 66.769531 21.570312 66.363281 22.042969 65.960938 22.519531 Z M 65.960938 22.519531 " fill-opacity="0.5" fill-rule="nonzero"/><path fill="#9f9b38" d="M 71.257812 11.332031 C 72.558594 11.269531 73.597656 10.902344 73.375 12.738281 C 73.285156 13.457031 74.523438 13.371094 75.0625 12.945312 C 76.277344 11.988281 77.074219 12.828125 77.941406 13.453125 C 78.292969 13.703125 78.316406 14.089844 78.070312 14.425781 C 77.453125 15.273438 76.605469 15.226562 75.664062 15.09375 C 74.921875 14.992188 74.074219 14.960938 73.394531 15.214844 C 70.507812 16.296875 68.230469 14.15625 65.613281 13.847656 C 65.460938 13.832031 65.195312 13.328125 65.261719 13.203125 C 65.417969 12.914062 65.710938 12.589844 66.011719 12.503906 C 67.832031 11.988281 69.59375 11.152344 71.257812 11.332031 Z M 71.257812 11.332031 " fill-opacity="0.5" fill-rule="nonzero"/><path fill="#9f9b38" d="M 141.257812 28.140625 C 139.574219 27.863281 137.753906 28.074219 137.773438 25.378906 C 137.789062 23.828125 138.738281 23.671875 139.417969 23.9375 C 141.21875 24.644531 142.835938 23.925781 144.519531 23.71875 C 145.953125 23.539062 146.871094 24.453125 147.25 25.488281 C 147.644531 26.566406 146.351562 26.628906 145.628906 26.996094 C 144.230469 27.703125 142.757812 28.035156 141.257812 28.140625 Z M 141.257812 28.140625 " fill-opacity="0.5" fill-rule="nonzero"/><path fill="#9f9b38" d="M 69.3125 83.9375 C 66.90625 85.007812 66.148438 81.929688 64.128906 81.4375 C 62.964844 81.152344 61.957031 80.714844 60.789062 81.210938 C 60.292969 81.417969 59.785156 81.425781 59.519531 80.890625 C 59.226562 80.308594 59.695312 80.011719 60.113281 79.738281 C 62.265625 78.339844 66.160156 78.796875 68.253906 80.746094 C 68.773438 81.230469 69.316406 81.589844 69.96875 81.847656 C 70.625 82.109375 71.453125 82.292969 71.410156 83.246094 C 71.382812 83.78125 70.742188 83.992188 69.3125 83.9375 Z M 69.3125 83.9375 " fill-opacity="0.5" fill-rule="nonzero"/><path fill="#9f9b38" d="M 84.992188 13.90625 C 84.878906 14.015625 84.769531 14.125 84.65625 14.234375 C 83.117188 14.65625 81.605469 15.757812 80.03125 14.234375 C 79.640625 13.855469 79.09375 13.640625 79.453125 13 C 79.792969 12.398438 80.355469 11.90625 81.039062 12.277344 C 81.78125 12.683594 82.410156 12.597656 83.097656 12.289062 C 82.875 11.929688 82.601562 11.59375 82.4375 11.214844 C 82.109375 10.453125 82.691406 10.195312 83.226562 9.992188 C 84.464844 9.523438 85.421875 10.160156 86.304688 10.890625 C 86.605469 11.140625 86.589844 11.792969 86.285156 11.84375 C 85.003906 12.0625 85.171875 13.070312 84.992188 13.90625 Z M 84.992188 13.90625 " fill-opacity="0.5" fill-rule="nonzero"/><path fill="#9f9b38" d="M 77.835938 85.527344 C 77.695312 85.742188 77.605469 85.980469 77.433594 86.121094 C 76.464844 86.921875 71.789062 86.921875 70.800781 86.148438 C 70.492188 85.90625 70.175781 85.378906 70.441406 85.265625 C 71.40625 84.847656 71.851562 83.570312 72.582031 83.402344 C 74.347656 83 76 83.855469 77.472656 84.878906 C 77.648438 85 77.703125 85.285156 77.835938 85.527344 Z M 77.835938 85.527344 " fill-opacity="0.5" fill-rule="nonzero"/><path fill="#9f9b38" d="M 82.441406 25.453125 C 82.703125 25.269531 82.96875 25.085938 83.230469 24.90625 C 83.949219 24.945312 84.683594 24.910156 85.386719 25.042969 C 86.304688 25.214844 87.03125 25.757812 86.867188 26.789062 C 86.679688 27.953125 85.757812 27.527344 85.019531 27.472656 C 84.578125 27.441406 84.125 27.460938 83.691406 27.535156 C 82.933594 27.664062 82.042969 28.34375 81.503906 27.375 C 81.015625 26.492188 82.09375 26.085938 82.441406 25.453125 Z M 82.441406 25.453125 " fill-opacity="0.5" fill-rule="nonzero"/><path fill="#9f9b38" d="M 76.527344 12.328125 C 75.792969 12.253906 74.785156 12.375 74.898438 11.554688 C 75.140625 9.832031 76.765625 10.640625 77.777344 10.355469 C 78.246094 10.226562 79.1875 10.328125 79.023438 11.0625 C 78.722656 12.390625 77.40625 12.117188 76.527344 12.328125 Z M 76.527344 12.328125 " fill-opacity="0.5" fill-rule="nonzero"/><path fill="#fed338" d="M 139.621094 42.699219 C 139.214844 42.699219 138.746094 42.394531 138.679688 41.738281 C 138.515625 40.125 140.53125 37.367188 141.898438 37.328125 C 142.914062 37.300781 143.722656 37.855469 143.777344 38.835938 C 143.890625 40.828125 141.953125 42.640625 139.621094 42.699219 Z M 139.621094 42.699219 " fill-opacity="1" fill-rule="nonzero"/><path fill="#fed338" d="M 169.167969 11.394531 C 169.765625 11.621094 170.582031 11.753906 170.40625 12.605469 C 170.230469 13.46875 169.390625 13.109375 168.867188 13.050781 C 168.066406 12.957031 167.265625 12.9375 166.519531 12.328125 C 165.785156 11.726562 165.25 12.640625 164.925781 13.148438 C 164.421875 13.9375 163.871094 13.933594 163.191406 13.558594 C 162.039062 12.929688 160.882812 12.296875 159.769531 11.601562 C 159.40625 11.375 159.128906 10.929688 159.289062 10.441406 C 159.457031 9.941406 159.933594 9.839844 160.378906 9.828125 C 162.53125 9.785156 164.710938 9.328125 166.796875 10.25 C 167.589844 10.628906 168.378906 11.011719 169.167969 11.394531 Z M 169.167969 11.394531 " fill-opacity="1" fill-rule="nonzero"/><path fill="#fed338" d="M 227.339844 67.382812 C 228.628906 61.453125 230.175781 55.519531 230.175781 49.589844 C 229.683594 37.335938 227.097656 25.316406 221.75 14.195312 C 219.773438 14.484375 218.460938 16.558594 216.304688 16.296875 C 215.683594 16.21875 215.214844 16.308594 214.957031 17.136719 C 214.808594 17.613281 213.824219 18.296875 213.449219 18.171875 C 210.550781 17.203125 210.273438 17.851562 212.132812 20.085938 C 212.199219 20.167969 212.105469 20.382812 212.089844 20.539062 C 211.992188 20.492188 211.859375 20.46875 211.804688 20.394531 C 211.382812 19.808594 210.742188 19.257812 210.621094 18.613281 C 210.441406 17.664062 210.320312 16.851562 209.21875 16.632812 C 207.425781 16.277344 206.855469 17.640625 206.09375 18.808594 C 205.570312 19.617188 206.125 19.980469 206.5625 20.445312 C 206.644531 20.527344 206.695312 20.632812 206.765625 20.726562 C 206.628906 20.738281 206.488281 20.777344 206.355469 20.757812 C 204.964844 20.542969 203.574219 20.15625 202.183594 20.164062 C 201.421875 20.164062 199.554688 18.371094 199.847656 21.144531 C 199.859375 21.222656 199.371094 21.359375 199.109375 21.460938 C 197.1875 22.1875 195.074219 20.871094 193.191406 22.007812 C 193.191406 22.007812 193.203125 21.996094 193.203125 21.996094 C 192.683594 22.378906 192.175781 22.777344 191.644531 23.140625 C 191.316406 23.363281 190.71875 23.679688 190.640625 23.179688 C 190.390625 21.570312 189.179688 21.578125 188.164062 21.769531 C 187.054688 21.976562 187.660156 23.109375 187.523438 23.835938 C 187.355469 24.714844 186.421875 24.113281 186.019531 24.636719 C 185.816406 24.902344 185.773438 24.621094 185.816406 24.375 C 186.074219 22.820312 185.125 22.308594 183.835938 21.867188 C 181.265625 20.980469 178.519531 20.722656 176.035156 19.441406 C 174.515625 18.660156 172.648438 18.675781 171.019531 19.15625 C 168.660156 19.851562 166.105469 19.929688 163.957031 21.257812 C 163.128906 21.765625 160.726562 20.851562 161.910156 23.367188 C 161.976562 23.507812 161.632812 23.828125 161.503906 24.082031 C 160.097656 26.796875 157.292969 27.746094 154.953125 29.285156 C 152.996094 30.570312 154.09375 32.242188 154.726562 33.539062 C 155.265625 34.644531 156.683594 35.144531 157.847656 34.265625 C 159.695312 32.871094 160.113281 33.992188 160.425781 35.507812 C 160.492188 35.820312 160.464844 36.15625 160.484375 36.476562 C 160.226562 36.230469 159.84375 36.027344 159.738281 35.730469 C 159.230469 34.246094 158.476562 34.609375 157.550781 35.320312 C 156.609375 36.042969 156.976562 37.042969 157.175781 37.789062 C 157.546875 39.171875 156.800781 39.558594 155.796875 39.785156 C 154.59375 40.054688 153.636719 40.519531 153.019531 41.6875 C 152.605469 42.46875 151.582031 42.726562 150.890625 42.515625 C 150.214844 42.304688 151.183594 41.835938 151.167969 41.371094 C 151.140625 40.796875 150.933594 40.453125 150.546875 40.027344 C 149.449219 38.832031 148.160156 37.554688 147.996094 35.964844 C 147.855469 34.609375 146.917969 33.074219 145.527344 33.164062 C 144.382812 33.234375 143.1875 33.714844 143.015625 34.675781 C 142.773438 36.019531 143.136719 37.476562 144.402344 38.453125 C 145.359375 39.195312 145.363281 39.253906 144.949219 39.632812 C 143.621094 40.847656 144.15625 42.691406 143.441406 44.144531 C 143.171875 44.691406 144.03125 44.769531 144.585938 44.554688 C 146.140625 43.953125 147.738281 43.546875 149.429688 43.625 C 149.585938 43.628906 149.746094 43.625 149.90625 43.625 C 149.863281 43.714844 149.839844 43.863281 149.773438 43.890625 C 148.460938 44.398438 147.167969 45.019531 145.8125 45.351562 C 145.066406 45.535156 144.152344 45.367188 143.914062 46.277344 C 143.675781 47.199219 144.566406 47.414062 145.191406 47.78125 C 146.769531 48.71875 147.003906 50.09375 146.425781 51.738281 C 145.9375 53.125 144.917969 52.429688 144.078125 52.367188 C 142.949219 52.289062 141.820312 52.042969 140.695312 52.0625 C 139.550781 52.078125 138.265625 52.359375 138.433594 53.878906 C 138.597656 55.378906 138.265625 56.710938 137.96875 58.140625 C 137.734375 59.285156 136.9375 61.277344 139.078125 61.644531 C 140.53125 61.890625 141.164062 62.207031 141.015625 63 C 141.015625 63 143.191406 63 143.191406 63 C 143.085938 62.941406 142.988281 62.859375 142.992188 62.84375 C 143.160156 62.421875 143.570312 62.414062 143.914062 62.4375 C 146.03125 62.59375 147.648438 61.445312 148.191406 59.714844 C 148.863281 57.570312 150.984375 56.816406 151.765625 55.429688 C 152.890625 53.449219 153.796875 53.492188 155.460938 53.769531 C 155.867188 53.839844 156.414062 53.367188 156.835938 53.054688 C 158.035156 52.167969 158.546875 52.339844 159.148438 53.855469 C 159.71875 55.292969 161.351562 56 162.75 56.679688 C 163.640625 57.109375 164.820312 57.480469 164.742188 58.496094 C 164.65625 59.683594 163.367188 59.441406 162.464844 59.53125 C 161.992188 59.578125 161.410156 59.511719 161.265625 60.128906 C 161.109375 60.765625 161.679688 60.9375 162.082031 61.179688 C 162.859375 61.644531 163.765625 62.691406 164.539062 61.992188 C 165.550781 61.089844 166.15625 59.722656 166.882812 58.527344 C 166.984375 58.359375 166.507812 57.921875 167.226562 58.074219 C 168.105469 58.265625 168.121094 57.484375 167.835938 57.09375 C 167.21875 56.246094 166.925781 54.945312 165.78125 54.71875 C 164.253906 54.417969 163.492188 53.253906 162.492188 52.335938 C 162.195312 52.058594 161.960938 51.753906 162.207031 51.394531 C 162.453125 51.039062 162.832031 51.398438 162.914062 51.539062 C 163.863281 53.152344 165.796875 53.320312 167.113281 54.441406 C 168.832031 55.898438 168.914062 58.066406 169.988281 59.777344 C 170.328125 60.320312 170.429688 61.113281 170.890625 61.453125 C 171.578125 61.960938 172.757812 63.097656 173.21875 62.242188 C 173.644531 61.449219 174.675781 60.308594 173.867188 59.023438 C 173.59375 58.589844 172.785156 57.910156 173.582031 57.542969 C 174.191406 57.261719 175.265625 55.847656 175.886719 58.101562 C 176.492188 60.304688 177.699219 62.917969 180.648438 62.664062 C 182.421875 62.507812 184.09375 64 185.90625 62.683594 C 186.859375 61.992188 186.59375 63.042969 186.621094 63.523438 C 186.992188 65.195312 185.816406 66.511719 185.554688 68.039062 C 185.515625 68.273438 185.09375 68.636719 184.886719 68.613281 C 184.710938 68.59375 184.53125 68.582031 184.355469 68.570312 C 184.828125 70.308594 185.539062 71.984375 186.226562 73.71875 C 186.660156 73.820312 187.058594 73.933594 187.15625 74.175781 C 188.394531 77.152344 191.496094 79.035156 191.9375 82.472656 C 192.085938 83.640625 193.339844 84.066406 193.964844 84.964844 C 195.632812 87.371094 196.574219 90.042969 197.328125 92.816406 C 197.332031 92.820312 197.335938 92.820312 197.335938 92.824219 C 197.339844 92.828125 197.339844 92.832031 197.339844 92.839844 C 197.902344 93.359375 198.265625 94.371094 199.253906 93.996094 C 201.007812 93.324219 202.671875 92.386719 204.449219 91.792969 C 206.492188 91.109375 207.75 89.1875 209.664062 88.523438 C 212.351562 87.59375 215.84375 83.96875 216.015625 81.269531 C 216.035156 80.953125 215.8125 80.574219 215.601562 80.304688 C 214.921875 79.445312 214.171875 78.695312 213.035156 78.390625 C 212.324219 78.199219 211.960938 77.421875 212.132812 76.855469 C 212.269531 76.390625 212.765625 77.085938 213.164062 77.113281 C 214.328125 77.191406 215.488281 77.46875 216.644531 77.449219 C 220.554688 77.382812 224.277344 77.460938 226.375 81.71875 C 226.484375 81.9375 226.636719 82.167969 226.820312 82.386719 C 226.777344 77.46875 226.355469 72.542969 227.339844 67.382812 Z M 170.554688 32.433594 C 170.917969 32.660156 171.175781 32.863281 171.105469 33.382812 C 171.042969 33.871094 170.851562 33.984375 170.402344 34.152344 C 169.257812 34.582031 168.960938 35.582031 169.035156 36.71875 C 169.113281 37.921875 168.738281 38.503906 167.507812 37.804688 C 167.085938 37.566406 166.75 37.632812 166.371094 37.824219 C 164.933594 38.542969 163.417969 38.773438 161.820312 38.582031 C 161.542969 38.550781 161.347656 38.640625 161.4375 38.25 C 161.515625 37.90625 161.617188 37.789062 162.054688 37.730469 C 163.386719 37.550781 164.925781 37.308594 165.523438 36.019531 C 166.070312 34.851562 166.132812 33.496094 167.347656 32.648438 C 167.726562 32.386719 167.414062 31.933594 167.054688 31.648438 C 165.371094 30.3125 166.175781 29.316406 167.550781 28.480469 C 168.441406 27.9375 169.4375 27.585938 169.773438 26.40625 C 169.9375 25.835938 170.574219 25.796875 171.101562 25.792969 C 171.25 25.792969 171.394531 25.988281 171.664062 26.179688 C 171.269531 26.507812 170.992188 26.792969 170.664062 27 C 168.082031 28.609375 168.03125 30.855469 170.554688 32.433594 Z M 184.066406 25.257812 C 184.464844 25.21875 184.679688 25.261719 184.691406 25.59375 C 184.703125 25.890625 184.585938 26.0625 184.273438 25.929688 C 184.039062 25.828125 183.828125 25.675781 183.601562 25.546875 C 183.792969 25.425781 183.984375 25.308594 184.066406 25.257812 Z M 181.464844 25.285156 C 181.792969 25.386719 182.371094 25.359375 182.253906 25.953125 C 182.199219 26.207031 182.398438 26.640625 181.921875 26.722656 C 181.453125 26.546875 181.183594 26.230469 181.136719 25.746094 C 181.109375 25.5 181.117188 25.179688 181.464844 25.285156 Z M 192.175781 55.246094 C 191.828125 56.070312 190.734375 55.710938 189.960938 55.800781 C 188.957031 55.910156 187.960938 55.699219 187.144531 55.21875 C 184.765625 53.832031 182.367188 55.433594 179.988281 55.03125 C 178.902344 54.84375 178.515625 54.292969 178.664062 53.285156 C 178.863281 51.941406 179.679688 50.8125 180.503906 49.890625 C 181.085938 49.242188 182.109375 49.765625 182.382812 50.789062 C 182.644531 51.773438 183.242188 52.433594 184.207031 51.953125 C 186.558594 50.792969 188.410156 51.695312 190.210938 53.109375 C 190.433594 53.28125 190.660156 53.460938 190.832031 53.679688 C 191.273438 54.238281 192.589844 54.269531 192.175781 55.246094 Z M 201.726562 57.84375 C 201.875 56.34375 200.058594 54.503906 198.847656 53.050781 C 197.941406 51.960938 198.050781 51.019531 198.863281 50.308594 C 199.949219 49.359375 201.199219 48.285156 202.867188 49.0625 C 203.203125 49.222656 203.371094 49.710938 202.984375 50.101562 C 201.15625 51.933594 201.304688 53.097656 203.289062 54.867188 C 204.863281 56.273438 205.453125 58.28125 205.980469 60.261719 C 206.171875 60.996094 205.707031 61.1875 204.765625 61.121094 C 204.007812 60.070312 201.417969 60.945312 201.726562 57.84375 Z M 210.792969 75.839844 C 209.933594 77.035156 209.144531 78.3125 207.34375 78.140625 C 207.121094 78.0625 206.714844 77.996094 206.707031 77.902344 C 206.503906 75.300781 203.695312 74.542969 202.859375 72.414062 C 202.703125 72.019531 202.183594 71.484375 202.917969 71.191406 C 203.414062 70.992188 203.789062 71.324219 204.074219 71.804688 C 205.554688 74.285156 207.28125 76.316406 210.640625 75.199219 C 210.847656 75.132812 211.144531 75.339844 211.394531 75.421875 C 211.191406 75.558594 210.925781 75.652344 210.792969 75.839844 Z M 210.792969 75.839844 " fill-opacity="1" fill-rule="nonzero"/><path fill="#fed338" d="M 202.703125 12.5625 C 203.472656 12.636719 204.25 12.59375 204.304688 13.480469 C 204.359375 14.332031 203.542969 14.097656 203.0625 14.292969 C 201.277344 15.019531 199.246094 15.050781 197.632812 16.273438 C 196.527344 17.113281 195.90625 17.890625 197.609375 18.726562 C 197.976562 18.910156 198.386719 19.109375 198.246094 19.621094 C 198.117188 20.105469 197.667969 20.136719 197.257812 20.121094 C 195.972656 20.066406 194.710938 19.871094 193.523438 19.359375 C 192.3125 18.839844 192.90625 17.1875 194.359375 15.535156 C 196.6875 12.894531 199.984375 13.46875 202.703125 12.5625 Z M 202.703125 12.5625 " fill-opacity="1" fill-rule="nonzero"/><path fill="#fed338" d="M 169.167969 11.394531 C 168.378906 11.011719 167.589844 10.628906 166.796875 10.25 C 166.6875 10.035156 166.46875 9.8125 166.488281 9.613281 C 166.570312 8.710938 167.386719 8.734375 167.867188 8.90625 C 169.164062 9.371094 171.175781 8.324219 171.699219 10.285156 C 171.953125 11.230469 170.703125 11.308594 169.894531 11.371094 C 169.652344 11.390625 169.410156 11.386719 169.167969 11.394531 Z M 169.167969 11.394531 " fill-opacity="1" fill-rule="nonzero"/><path fill="#fed338" d="M 185.96875 8.773438 C 186.5 8.851562 187.054688 8.933594 187.609375 9.015625 C 188.300781 9.121094 189.339844 9.042969 189.222656 10.003906 C 189.097656 11.070312 188.035156 10.839844 187.253906 10.757812 C 186.734375 10.703125 186.226562 10.570312 185.71875 10.449219 C 185.113281 10.300781 184.183594 10.289062 184.253906 9.515625 C 184.335938 8.640625 185.308594 8.925781 185.96875 8.773438 Z M 185.96875 8.773438 " fill-opacity="1" fill-rule="nonzero"/><path fill="#fed338" d="M 156.613281 57.273438 C 156.753906 56.40625 157.34375 55.363281 157.027344 54.144531 C 156.898438 53.648438 157.515625 53.234375 158.109375 53.234375 C 158.59375 53.234375 158.953125 53.671875 158.851562 54.03125 C 158.503906 55.257812 159.078125 56.417969 158.957031 57.617188 C 158.875 58.425781 158.667969 59.070312 157.699219 59.070312 C 156.605469 59.070312 156.679688 58.257812 156.613281 57.273438 Z M 156.613281 57.273438 " fill-opacity="1" fill-rule="nonzero"/><path fill="#9f9b38" d="M 314.65625 23.964844 C 312.566406 23.828125 310.566406 23.53125 308.515625 22.980469 C 303.273438 21.570312 298.148438 19.371094 292.382812 20.988281 C 290.828125 21.425781 288.648438 20.867188 286.757812 20.648438 C 283.894531 20.3125 281.339844 18.539062 278.296875 18.980469 C 276.957031 19.175781 275.511719 19.273438 274.246094 18.578125 C 271.226562 16.917969 267.503906 18.019531 264.558594 16.039062 C 264 15.664062 263.097656 15.710938 262.683594 16.371094 C 262.148438 17.222656 263.152344 17.242188 263.523438 17.625 C 263.699219 17.804688 263.808594 18.269531 263.699219 18.46875 C 263.472656 18.890625 257.6875 18.964844 257.242188 18.632812 C 255.769531 17.53125 254.152344 16.800781 252.375 16.261719 C 250.8125 15.792969 249.640625 17.039062 248.324219 16.84375 C 245.136719 16.371094 241.878906 16.972656 238.972656 14.253906 C 236.382812 11.832031 232.292969 12.726562 228.878906 12.457031 C 227.753906 12.371094 226.226562 13.621094 224.683594 13.746094 C 223.84375 13.816406 223.015625 14.234375 222.195312 14.203125 C 221.996094 14.195312 221.804688 14.210938 221.617188 14.238281 C 226.964844 25.359375 229.554688 37.378906 230.042969 49.632812 C 230.042969 55.5625 228.496094 61.492188 227.207031 67.421875 C 226.222656 72.585938 226.644531 77.511719 226.6875 82.429688 C 227.289062 83.144531 228.253906 83.742188 229.3125 83.492188 C 230.183594 83.285156 230.167969 83.613281 230.238281 84.167969 C 230.933594 89.648438 233.433594 94.453125 235.921875 99.25 C 236.660156 100.675781 237.644531 101.164062 238.539062 99.230469 C 238.820312 98.628906 239.304688 98.121094 239.695312 97.570312 C 239.757812 97.507812 239.816406 97.449219 239.875 97.390625 C 240.648438 95.535156 240.480469 93.621094 240.210938 91.703125 C 240.128906 91.128906 239.929688 90.414062 240.632812 90.242188 C 242.472656 89.804688 243.050781 88.140625 244.070312 86.914062 C 245.195312 85.554688 246.371094 83.945312 247.648438 83.089844 C 248.847656 82.289062 251.289062 80.804688 252.984375 83.613281 C 253.878906 85.101562 255.445312 86.175781 255.511719 88.140625 C 255.535156 88.753906 255.261719 89.515625 256.117188 89.804688 C 256.90625 90.074219 257.691406 90.199219 258.328125 89.398438 C 258.519531 89.15625 258.910156 88.738281 259.132812 89.382812 C 259.601562 90.707031 259.902344 92.097656 260.457031 93.378906 C 261.601562 96 260.070312 99.082031 262.300781 101.628906 C 263.90625 103.460938 264.039062 106.316406 265.828125 108.195312 C 266.402344 108.488281 266.96875 108.804688 267.550781 109.078125 C 268.140625 109.351562 268.835938 109.179688 268.65625 108.527344 C 268.039062 106.308594 268.25 103.839844 265.90625 102.179688 C 264.09375 100.894531 262.742188 98.902344 263.003906 96.40625 C 263.097656 95.53125 261.792969 92.976562 264.800781 94.785156 C 266.175781 95.613281 267.5625 96.714844 267.972656 97.816406 C 268.945312 100.449219 269.84375 98.882812 270.871094 98.171875 C 271.199219 97.945312 271.414062 97.539062 271.757812 97.359375 C 273.769531 96.296875 274.300781 94.765625 273.773438 92.535156 C 273.253906 90.355469 272.085938 88.675781 270.476562 87.296875 C 268.964844 86.003906 268.605469 84.898438 270.070312 83.273438 C 270.808594 82.453125 271.507812 82.246094 272.21875 82.808594 C 272.949219 83.382812 272.691406 84.066406 271.890625 84.632812 C 271.308594 85.042969 271.121094 85.769531 271.8125 86.28125 C 272.683594 86.929688 273.640625 87.261719 274.457031 86.152344 C 274.886719 85.570312 275.523438 84.839844 274.609375 84.296875 C 273.378906 83.566406 274.105469 83.242188 274.765625 82.84375 C 277.621094 81.117188 281.5625 81.007812 282.996094 77.152344 C 283.707031 75.238281 284.628906 73.441406 284.34375 71.269531 C 283.96875 68.457031 282.125 66.53125 280.445312 64.53125 C 279.613281 63.535156 279.722656 63.027344 280.785156 62.515625 C 281.171875 62.328125 281.496094 62.078125 281.453125 61.597656 C 281.40625 61.113281 281.105469 60.722656 280.648438 60.628906 C 279.941406 60.484375 279.046875 60.164062 278.519531 60.449219 C 277.261719 61.136719 277.070312 59.28125 276.074219 59.636719 C 276.421875 59.328125 276.78125 59.035156 277.113281 58.707031 C 277.21875 58.601562 277.261719 58.421875 277.320312 58.273438 C 277.449219 57.902344 277.671875 57.566406 278.089844 57.632812 C 278.519531 57.703125 278.382812 58.140625 278.433594 58.441406 C 278.679688 59.828125 279.398438 59.902344 280.386719 59.125 C 281.59375 58.179688 282.914062 58.636719 283.28125 60.113281 C 283.371094 60.476562 283.636719 61.058594 283.859375 61.078125 C 285.484375 61.230469 285.828125 62.617188 286.183594 63.691406 C 286.945312 66.007812 288.289062 65.144531 289.585938 64.511719 C 291.273438 63.6875 289.820312 62.730469 289.546875 61.910156 C 289.367188 61.378906 288.855469 60.886719 288.371094 60.546875 C 286.5 59.242188 286.421875 57.582031 287.1875 55.640625 C 287.578125 54.648438 287.929688 53.917969 289.132812 54.742188 C 289.585938 55.050781 290.070312 54.910156 290.417969 54.457031 C 292.144531 52.179688 292.464844 46.996094 291.054688 44.570312 C 290.875 44.265625 290.433594 43.980469 290.785156 43.519531 C 291.046875 43.75 291.382812 43.933594 291.566406 44.214844 C 292.617188 45.84375 293.644531 47.496094 294.65625 49.152344 C 294.992188 49.703125 295.363281 50.238281 296.070312 50.042969 C 296.5 49.921875 297.078125 49.613281 297.195312 49.257812 C 297.414062 48.613281 296.683594 48.359375 296.296875 47.972656 C 295.875 47.554688 294.828125 47.160156 295.550781 46.476562 C 296.378906 45.699219 295.777344 45.339844 295.398438 44.902344 C 294.878906 44.292969 294.210938 43.808594 293.691406 43.199219 C 292 41.210938 289.515625 40.285156 287.925781 39.648438 C 285.953125 38.859375 283.769531 39.550781 281.96875 38.367188 C 281.761719 38.234375 281.1875 38.117188 281.484375 37.890625 C 282.679688 36.984375 282.425781 35.457031 283.136719 34.386719 C 283.777344 33.421875 289.589844 32.960938 290.917969 33.65625 C 292.039062 34.246094 293.253906 33.925781 294.320312 33.605469 C 295.171875 33.347656 294.144531 32.539062 294.328125 32.046875 C 294.515625 31.539062 294.074219 30.738281 294.75 30.5625 C 295.34375 30.414062 295.941406 30.730469 296.484375 31.210938 C 297.285156 31.917969 298.289062 33.003906 299.046875 31.085938 C 299.171875 30.769531 299.425781 30.660156 299.722656 30.898438 C 300.019531 31.136719 300.011719 31.410156 299.84375 31.757812 C 299.316406 32.84375 298.421875 33.945312 298.410156 35.050781 C 298.390625 36.910156 299.167969 38.605469 300.792969 39.855469 C 302.195312 40.9375 303.816406 41.746094 304.933594 43.203125 C 305.296875 43.671875 305.695312 44.429688 306.492188 44.054688 C 307.257812 43.703125 307.355469 42.925781 307.277344 42.164062 C 307.09375 40.304688 307.574219 38.464844 306.28125 36.617188 C 305.496094 35.492188 305.152344 34.277344 303.578125 34.183594 C 303.144531 34.160156 303.042969 33.878906 302.96875 33.558594 C 302.886719 33.195312 303.003906 32.8125 303.390625 32.832031 C 304.507812 32.894531 305.574219 32.035156 306.742188 32.738281 C 307.613281 33.269531 308.289062 32.980469 308.621094 31.976562 C 308.976562 30.890625 310 30.421875 310.832031 29.871094 C 311.320312 29.550781 312.417969 30.210938 312.574219 29.125 C 312.726562 28.089844 311.753906 27.871094 311.070312 27.464844 C 310.816406 27.316406 310.433594 26.988281 310.464844 26.8125 C 310.5625 26.347656 311.058594 26.46875 311.386719 26.511719 C 312.902344 26.71875 314.28125 27.523438 315.863281 27.507812 C 316.519531 27.496094 316.773438 27.398438 317.019531 26.671875 C 317.839844 24.273438 316.179688 24.070312 314.65625 23.964844 Z M 314.65625 23.964844 " fill-opacity="1" fill-rule="nonzero"/><path fill="#9f9b38" d="M 293.710938 112.875 C 295.621094 112.515625 295.476562 114.089844 295.804688 115.15625 C 296.132812 116.210938 296.3125 117.011719 297.472656 115.667969 C 298.507812 114.472656 299.703125 113.832031 301.449219 114.875 C 302.804688 115.683594 304.488281 115.9375 306.011719 116.472656 C 306.464844 116.632812 306.898438 116.875 307.304688 117.140625 C 308.765625 118.101562 312.628906 119.335938 314.054688 119.214844 C 314.378906 119.1875 314.785156 119 314.980469 118.75 C 315.414062 118.195312 315.796875 117.394531 316.539062 118.207031 C 317.1875 118.917969 317.101562 119.957031 316.332031 120.464844 C 315.460938 121.035156 314.382812 121.816406 313.304688 121.339844 C 311.996094 120.765625 311.589844 121.863281 311.246094 122.425781 C 310.855469 123.0625 311.726562 123.683594 312.222656 124.140625 C 313.039062 124.902344 314.195312 125.820312 313.785156 126.785156 C 313.292969 127.953125 312.09375 126.738281 311.191406 126.722656 C 309.8125 126.695312 308.789062 126.15625 308.585938 124.585938 C 308.492188 123.867188 308.101562 123.3125 307.238281 123.269531 C 306.375 123.230469 306.476562 123.910156 306.285156 124.410156 C 305.835938 125.558594 303.203125 125.671875 301.574219 124.558594 C 301.109375 124.238281 300.722656 124.035156 300.144531 124.164062 C 299.640625 124.28125 299.175781 124.109375 298.921875 123.601562 C 298.707031 123.171875 298.664062 122.726562 299.007812 122.351562 C 299.953125 121.3125 299.160156 120.152344 298.558594 119.875 C 297.230469 119.261719 295.960938 118.398438 294.273438 118.484375 C 292.933594 118.550781 292.707031 117.046875 292.316406 115.996094 C 292.246094 115.804688 292.386719 115.4375 292.285156 115.367188 C 291.730469 114.988281 290.648438 114.945312 291.132812 113.90625 C 291.621094 112.863281 292.769531 113.046875 293.710938 112.875 Z M 293.710938 112.875 " fill-opacity="1" fill-rule="nonzero"/><path fill="#9f9b38" d="M 265.480469 111.777344 C 265.707031 110.671875 265.570312 109.1875 267.804688 109.71875 C 268.46875 109.875 269.527344 108.847656 270.101562 108.257812 C 271.316406 107.015625 272.976562 106.144531 273.683594 104.40625 C 273.9375 103.777344 274.386719 102.933594 275.113281 103.125 C 276.332031 103.441406 277.339844 104.328125 278.027344 105.363281 C 278.542969 106.132812 277.496094 106.457031 277.089844 106.804688 C 275.640625 108.046875 276.773438 109.046875 277.292969 110.082031 C 277.695312 110.878906 278.507812 111.335938 276.953125 112.144531 C 275.960938 112.660156 275.375 114.449219 275.105469 115.773438 C 274.695312 117.820312 273.882812 118.324219 272.011719 117.511719 C 271.207031 117.164062 270.171875 117.527344 269.210938 117.167969 C 267.308594 116.453125 265.441406 114.011719 265.480469 111.777344 Z M 265.480469 111.777344 " fill-opacity="1" fill-rule="nonzero"/><path fill="#9f9b38" d="M 298.496094 59.289062 C 298.039062 58.097656 298.183594 56.636719 296.78125 55.628906 C 295.101562 54.417969 296.347656 52.308594 295.761719 50.664062 C 295.605469 50.230469 296.863281 50.410156 297.390625 50.703125 C 298.511719 51.328125 299.535156 52.089844 300.902344 52.242188 C 301.722656 52.335938 302.886719 52.863281 302.386719 53.820312 C 301.957031 54.644531 300.859375 55.289062 299.6875 55.257812 C 299.320312 55.25 298.859375 54.722656 298.613281 55.214844 C 298.375 55.6875 299.050781 55.671875 299.292969 55.871094 C 300.761719 57.070312 302.429688 62.363281 301.84375 64.121094 C 301.671875 64.636719 301.253906 64.796875 300.769531 64.984375 C 298.875 65.714844 297.035156 66.597656 295.125 67.277344 C 294.3125 67.566406 294.414062 68.113281 294.300781 68.679688 C 294.191406 69.214844 293.960938 69.710938 293.347656 69.8125 C 292.765625 69.910156 292.621094 69.375 292.410156 69.011719 C 290.480469 65.765625 291.308594 63.960938 295.15625 63.042969 C 295.816406 62.886719 296.183594 62.628906 296.265625 61.859375 C 296.347656 61.121094 296.476562 60.378906 297.746094 60.882812 C 298.417969 61.148438 298.355469 60.003906 298.496094 59.289062 Z M 298.496094 59.289062 " fill-opacity="1" fill-rule="nonzero"/><path fill="#9f9b38" d="M 292.359375 97.242188 C 293.03125 96.917969 293.515625 97.253906 293.742188 97.8125 C 294.257812 99.101562 295.144531 100.449219 294.324219 101.820312 C 293.957031 102.4375 294.175781 103.796875 292.898438 103.59375 C 291.796875 103.421875 291.324219 101.90625 290.824219 101.695312 C 289.277344 101.039062 287.867188 101.003906 289.65625 98.960938 C 289.792969 98.808594 288.035156 97.339844 288.117188 95.988281 C 288.144531 95.554688 287.882812 94.941406 288.578125 94.761719 C 289.113281 94.625 289.613281 94.734375 290.039062 95.136719 C 290.230469 95.320312 290.476562 95.441406 290.699219 95.59375 C 290.773438 95.46875 290.917969 95.335938 290.910156 95.214844 C 290.886719 94.824219 290.582031 94.765625 290.257812 94.636719 C 289.410156 94.296875 288.878906 93.855469 287.761719 94.675781 C 286.660156 95.484375 286.566406 93.683594 286.136719 92.957031 C 285.953125 92.644531 286.136719 92.050781 285.914062 91.835938 C 284.34375 90.335938 285.796875 88.375 285.089844 86.742188 C 284.925781 86.371094 285.390625 85.796875 285.863281 85.839844 C 286.511719 85.894531 287.449219 85.40625 287.765625 86.132812 C 288.246094 87.226562 288.960938 88.410156 288.203125 89.691406 C 287.6875 90.554688 288.226562 91.402344 288.820312 91.445312 C 290.761719 91.582031 291.054688 93.640625 292.574219 94.355469 C 293.765625 94.914062 292.785156 96.277344 292.367188 97.25 C 291.667969 97.503906 290.867188 97.644531 290.769531 98.589844 C 290.761719 98.664062 291.066406 98.867188 291.191406 98.84375 C 292.066406 98.679688 292.160156 97.917969 292.359375 97.242188 Z M 292.359375 97.242188 " fill-opacity="1" fill-rule="nonzero"/><path fill="#9f9b38" d="M 277.542969 118.5625 C 276.621094 117.074219 277.046875 115.085938 277.800781 113.066406 C 278.5 111.199219 279.210938 109.578125 281.71875 110.484375 C 282.417969 110.738281 283.1875 110.949219 283.839844 110.210938 C 284.097656 109.921875 284.527344 110.003906 284.847656 110.25 C 285.140625 110.472656 285.230469 110.804688 285.039062 111.113281 C 284.59375 111.835938 284.152344 112.648438 283.167969 112.648438 C 282.40625 112.648438 281.648438 112.417969 280.886719 112.398438 C 280.578125 112.390625 280.242188 112.644531 279.972656 112.851562 C 279.882812 112.917969 279.972656 113.214844 279.980469 113.410156 C 280.277344 113.359375 280.570312 113.273438 280.867188 113.261719 C 281.589844 113.238281 282.539062 112.671875 282.945312 113.589844 C 283.335938 114.464844 282.378906 114.671875 281.792969 114.976562 C 280.695312 115.539062 281.496094 116.203125 281.714844 116.808594 C 281.921875 117.394531 282.574219 117.96875 282.003906 118.578125 C 281.523438 119.09375 280.972656 119.769531 280.042969 119.113281 C 279.585938 118.792969 279.707031 119.375 279.648438 119.574219 C 279.457031 120.25 279.03125 120.667969 278.335938 120.570312 C 277.503906 120.457031 277.605469 119.738281 277.542969 118.5625 Z M 277.542969 118.5625 " fill-opacity="1" fill-rule="nonzero"/><path fill="#9f9b38" d="M 260.550781 13.75 C 262.917969 15.101562 265.667969 13.601562 268.234375 14.4375 C 268.78125 14.617188 269.625 14.691406 269.421875 15.496094 C 269.25 16.175781 268.476562 16.4375 267.816406 16.207031 C 265.175781 15.285156 262.484375 15.722656 259.800781 15.765625 C 258.953125 15.78125 257.683594 16.082031 257.550781 14.964844 C 257.390625 13.621094 258.714844 14.191406 259.449219 14.042969 C 259.765625 13.980469 260.070312 13.878906 260.550781 13.75 Z M 260.550781 13.75 " fill-opacity="1" fill-rule="nonzero"/><path fill="#9f9b38" d="M 223.152344 11.875 C 221.636719 11.460938 219.925781 11.003906 218.222656 10.519531 C 217.886719 10.421875 217.652344 10.148438 217.761719 9.769531 C 217.925781 9.21875 218.34375 8.800781 218.894531 8.8125 C 220.957031 8.855469 222.722656 10.003906 224.683594 10.453125 C 224.976562 10.523438 225.097656 10.96875 224.886719 11.292969 C 224.53125 11.84375 223.9375 11.835938 223.152344 11.875 Z M 223.152344 11.875 " fill-opacity="1" fill-rule="nonzero"/><path fill="#9f9b38" d="M 286.121094 78.988281 C 285.730469 79.679688 286.582031 81.164062 284.980469 81.238281 C 284.011719 81.285156 283.429688 80.46875 283.5625 79.5 C 283.714844 78.429688 283.660156 76.941406 285.15625 76.886719 C 286.375 76.84375 286.015625 78.085938 286.121094 78.988281 Z M 286.121094 78.988281 " fill-opacity="1" fill-rule="nonzero"/><path fill="#9f9b38" d="M 286.601562 96.984375 C 286.253906 98.128906 285.203125 98.9375 284.164062 99.730469 C 283.886719 99.941406 283.535156 99.773438 283.332031 99.464844 C 283.074219 99.070312 283.144531 98.667969 283.421875 98.339844 C 284.125 97.503906 284.84375 96.695312 285.230469 95.640625 C 285.292969 95.464844 285.730469 95.25 285.886719 95.316406 C 286.492188 95.574219 286.535156 96.175781 286.601562 96.984375 Z M 286.601562 96.984375 " fill-opacity="1" fill-rule="nonzero"/><path fill="#9f9b38" d="M 297.183594 108.519531 C 297.179688 109.285156 298.355469 110.671875 296.480469 110.929688 C 295.546875 111.058594 295.292969 110.015625 295.316406 109.246094 C 295.347656 108.347656 295.605469 107.363281 296.699219 107.253906 C 297.367188 107.183594 297.308594 107.847656 297.183594 108.519531 Z M 297.183594 108.519531 " fill-opacity="1" fill-rule="nonzero"/><path fill="#605951" d="M 305.132812 133.492188 C 305.796875 134.925781 306.285156 136.433594 308.378906 137.410156 C 310.390625 138.347656 311.433594 140.355469 312.9375 141.835938 C 317.71875 146.535156 317.558594 150.984375 315.550781 154.976562 C 314.753906 156.5625 312.675781 157.257812 312.191406 159.136719 C 312.125 159.378906 311.84375 159.542969 311.847656 159.792969 C 311.851562 162.90625 308.796875 163.265625 306.425781 163.59375 C 304.585938 163.847656 302.085938 163.96875 299.683594 162.488281 C 298.875 161.988281 298.679688 161.488281 298.941406 160.910156 C 299.273438 160.175781 298.535156 159.9375 297.957031 159.621094 C 297.765625 159.511719 297.480469 159.25 297.625 159.707031 C 297.675781 159.867188 297.742188 160.050781 297.707031 160.179688 C 297.570312 160.679688 297.164062 160.949219 296.550781 160.878906 C 296.253906 160.84375 295.773438 160.613281 295.601562 160.382812 C 295.160156 159.78125 295.640625 159.5625 295.980469 159.289062 C 296.148438 159.152344 296.339844 158.816406 296.242188 158.6875 C 295.921875 158.257812 295.757812 158.667969 295.503906 158.683594 C 293.957031 158.761719 293.746094 157.453125 293.382812 156.703125 C 292.445312 154.777344 290.722656 154.488281 289.53125 154.734375 C 286.414062 155.378906 283.148438 155.90625 280.953125 157.902344 C 280.566406 158.253906 280.007812 158.351562 279.355469 158.253906 C 277.734375 158.011719 276.578125 158.476562 275.605469 159.300781 C 274.378906 160.347656 272.847656 160.148438 271.085938 158.796875 C 270.347656 158.230469 270.15625 157.707031 270.628906 157.234375 C 271.402344 156.457031 271.476562 155.40625 270.90625 154.242188 C 269.894531 152.1875 269.554688 150.109375 268.050781 148.042969 C 266.269531 145.597656 267.429688 141.238281 269.757812 140.339844 C 271.324219 139.734375 272.859375 139.082031 274.496094 138.585938 C 275.472656 138.289062 276.257812 137.757812 276.289062 136.875 C 276.382812 134.335938 278.785156 133.328125 279.5 131.207031 C 279.953125 129.859375 281.363281 129.882812 282.945312 130.933594 C 283.828125 131.523438 283.835938 131.472656 283.902344 130.644531 C 284.011719 129.257812 285.585938 128.726562 286.164062 127.84375 C 287.542969 125.738281 289.882812 127.625 291.648438 127.511719 C 293.316406 127.40625 293.84375 128.554688 293.609375 129.761719 C 293.214844 131.785156 296.128906 134.785156 298.351562 134.386719 C 299.429688 134.195312 298.785156 132.527344 298.769531 131.503906 C 298.746094 129.996094 298.46875 128.425781 298.34375 126.894531 C 298.300781 126.355469 298.5 125.898438 299.210938 125.976562 C 299.875 126.050781 300.070312 126.59375 300.410156 127.054688 C 301.40625 128.40625 301.859375 129.984375 303.679688 131.003906 C 304.554688 131.492188 304.996094 132.492188 305.132812 133.492188 Z M 305.132812 133.492188 " fill-opacity="1" fill-rule="nonzero"/><path fill="#605951" d="M 257.804688 110.054688 C 258.820312 111.292969 260.183594 112.167969 260.816406 113.828125 C 261.136719 114.667969 262.941406 114.25 263.605469 115.464844 C 263.976562 116.148438 264.191406 116.574219 263.519531 117.105469 C 262.601562 117.832031 262.785156 118.90625 262.902344 119.8125 C 263.007812 120.589844 263.933594 120.128906 264.449219 120.332031 C 267.109375 121.375 270.164062 120.886719 272.679688 122.464844 C 273.308594 122.855469 274.277344 123.078125 274.058594 124.050781 C 273.808594 125.140625 272.984375 124.582031 272.28125 124.507812 C 269.347656 124.1875 266.4375 123.726562 263.609375 122.902344 C 262.570312 122.601562 260.75 122.734375 261.574219 120.640625 C 261.59375 120.589844 261.550781 120.460938 261.503906 120.441406 C 257.183594 118.65625 255.964844 114.3125 253.628906 110.890625 C 252.503906 109.246094 251.277344 107.691406 249.773438 106.363281 C 249.402344 106.039062 249.113281 105.554688 249.585938 105.09375 C 250.019531 104.671875 250.539062 104.667969 251.15625 104.8125 C 253.390625 105.328125 254.40625 107.371094 256.050781 108.609375 C 256.660156 109.070312 257.230469 109.582031 257.816406 110.066406 C 257.816406 110.066406 257.804688 110.054688 257.804688 110.054688 Z M 257.804688 110.054688 " fill-opacity="1" fill-rule="nonzero"/><path fill="#605951" d="M 315.144531 174.824219 C 314.371094 174.59375 313.578125 174.480469 312.917969 174.121094 C 312.125 173.6875 312.402344 173.015625 313.054688 172.734375 C 315.238281 171.785156 317.113281 170.242188 319.441406 169.542969 C 321.175781 169.023438 322.324219 167.511719 323.75 166.464844 C 324.441406 165.957031 325.101562 165.460938 325.792969 166.472656 C 325.996094 166.769531 326.328125 166.882812 326.628906 166.597656 C 326.988281 166.257812 327.582031 166.011719 327.269531 165.328125 C 326.996094 164.730469 327.222656 164.292969 327.738281 163.992188 C 329.375 163.050781 329.863281 161.671875 329.402344 159.875 C 329.246094 159.273438 329.148438 158.59375 329.996094 158.40625 C 330.824219 158.226562 331.277344 158.816406 331.328125 159.480469 C 331.398438 160.449219 332.296875 161.199219 331.96875 162.253906 C 331.886719 162.523438 332.15625 162.699219 332.441406 162.625 C 332.910156 162.503906 333.519531 161.984375 333.710938 162.832031 C 333.871094 163.527344 333.347656 164.167969 332.78125 164.410156 C 330.511719 165.386719 328.828125 167.207031 326.460938 168.230469 C 323.890625 169.339844 321.191406 170.839844 318.960938 172.804688 C 317.84375 173.789062 316.542969 174.40625 315.144531 174.824219 Z M 315.144531 174.824219 " fill-opacity="1" fill-rule="nonzero"/><path fill="#605951" d="M 283.863281 123.925781 C 282.535156 124.269531 281.214844 124.648438 279.875 124.929688 C 279.367188 125.035156 279.347656 125.179688 279.417969 125.640625 C 279.5625 126.589844 278.953125 127.007812 278.175781 126.664062 C 276.976562 126.128906 276.257812 124.710938 274.640625 124.824219 C 274.308594 124.847656 274.117188 123.972656 274.589844 123.742188 C 275.425781 123.332031 276.351562 122.449219 277.285156 123.523438 C 277.660156 123.957031 277.621094 123.898438 278.1875 123.617188 C 279.878906 122.769531 281.832031 122.957031 283.695312 123.015625 C 284.113281 123.03125 284.015625 123.585938 283.847656 123.9375 C 283.847656 123.9375 283.863281 123.925781 283.863281 123.925781 Z M 283.863281 123.925781 " fill-opacity="1" fill-rule="nonzero"/><path fill="#605951" d="M 295.578125 166.441406 C 296.371094 167.878906 298.292969 164.886719 298.941406 167.195312 C 299.210938 168.171875 296.039062 170.773438 294.773438 170.800781 C 294.050781 170.816406 293.40625 170.335938 293.625 169.726562 C 294.039062 168.574219 293.375 166.746094 295.578125 166.441406 Z M 295.578125 166.441406 " fill-opacity="1" fill-rule="nonzero"/><path fill="#605951" d="M 283.847656 123.9375 C 284.617188 123.699219 285.375 123.425781 286.152344 123.238281 C 286.722656 123.097656 287.257812 123.316406 287.398438 123.902344 C 287.546875 124.515625 286.984375 124.742188 286.527344 124.859375 C 285.496094 125.128906 284.605469 125.648438 283.734375 126.238281 C 283.179688 126.609375 282.410156 127.136719 281.980469 126.3125 C 281.617188 125.617188 282.113281 124.949219 282.875 124.589844 C 283.230469 124.421875 283.535156 124.152344 283.863281 123.925781 C 283.863281 123.925781 283.847656 123.9375 283.847656 123.9375 Z M 283.847656 123.9375 " fill-opacity="1" fill-rule="nonzero"/><path fill="#9f9b38" d="M 305.078125 133.492188 C 305.742188 134.925781 306.226562 136.433594 308.324219 137.410156 C 310.335938 138.347656 311.378906 140.355469 312.882812 141.835938 C 317.660156 146.535156 317.503906 150.984375 315.496094 154.976562 C 314.699219 156.5625 312.621094 157.257812 312.132812 159.136719 C 312.070312 159.378906 311.789062 159.542969 311.789062 159.792969 C 311.796875 162.90625 308.738281 163.265625 306.371094 163.59375 C 304.53125 163.847656 302.03125 163.96875 299.625 162.488281 C 298.820312 161.988281 298.621094 161.488281 298.882812 160.910156 C 299.21875 160.175781 298.480469 159.9375 297.898438 159.621094 C 297.707031 159.511719 297.421875 159.25 297.566406 159.707031 C 297.617188 159.867188 297.6875 160.050781 297.652344 160.179688 C 297.515625 160.679688 297.105469 160.949219 296.496094 160.878906 C 296.195312 160.84375 295.714844 160.613281 295.542969 160.382812 C 295.105469 159.78125 295.582031 159.5625 295.925781 159.289062 C 296.09375 159.152344 296.285156 158.816406 296.1875 158.6875 C 295.867188 158.257812 295.699219 158.667969 295.445312 158.683594 C 293.902344 158.761719 293.691406 157.453125 293.328125 156.703125 C 292.386719 154.777344 290.664062 154.488281 289.472656 154.734375 C 286.355469 155.378906 283.09375 155.90625 280.898438 157.902344 C 280.507812 158.253906 279.953125 158.351562 279.296875 158.253906 C 277.679688 158.011719 276.519531 158.476562 275.550781 159.300781 C 274.320312 160.347656 272.792969 160.148438 271.03125 158.796875 C 270.292969 158.230469 270.101562 157.707031 270.570312 157.234375 C 271.347656 156.457031 271.421875 155.40625 270.851562 154.242188 C 269.839844 152.1875 269.5 150.109375 267.996094 148.042969 C 266.210938 145.597656 267.371094 141.238281 269.699219 140.339844 C 271.269531 139.734375 272.804688 139.082031 274.441406 138.585938 C 275.414062 138.289062 276.199219 137.757812 276.234375 136.875 C 276.324219 134.335938 278.730469 133.328125 279.441406 131.207031 C 279.894531 129.859375 281.308594 129.882812 282.886719 130.933594 C 283.769531 131.523438 283.78125 131.472656 283.847656 130.644531 C 283.957031 129.257812 285.527344 128.726562 286.109375 127.84375 C 287.488281 125.738281 289.828125 127.625 291.589844 127.511719 C 293.261719 127.40625 293.789062 128.554688 293.554688 129.761719 C 293.160156 131.785156 296.070312 134.785156 298.292969 134.386719 C 299.375 134.195312 298.726562 132.527344 298.710938 131.503906 C 298.6875 129.996094 298.410156 128.425781 298.289062 126.894531 C 298.246094 126.355469 298.441406 125.898438 299.152344 125.976562 C 299.816406 126.050781 300.011719 126.59375 300.355469 127.054688 C 301.351562 128.40625 301.804688 129.984375 303.625 131.003906 C 304.496094 131.492188 304.941406 132.492188 305.078125 133.492188 Z M 305.078125 133.492188 " fill-opacity="0.5" fill-rule="nonzero"/><path fill="#9f9b38" d="M 257.75 110.054688 C 258.761719 111.292969 260.128906 112.167969 260.761719 113.828125 C 261.082031 114.667969 262.882812 114.25 263.550781 115.464844 C 263.921875 116.148438 264.132812 116.574219 263.464844 117.105469 C 262.546875 117.832031 262.726562 118.90625 262.847656 119.8125 C 262.949219 120.589844 263.878906 120.128906 264.390625 120.332031 C 267.054688 121.375 270.105469 120.886719 272.625 122.464844 C 273.253906 122.855469 274.222656 123.078125 274 124.050781 C 273.753906 125.140625 272.929688 124.582031 272.226562 124.507812 C 269.292969 124.1875 266.382812 123.730469 263.550781 122.902344 C 262.515625 122.601562 260.691406 122.734375 261.515625 120.640625 C 261.539062 120.589844 261.492188 120.460938 261.449219 120.441406 C 257.128906 118.65625 255.910156 114.3125 253.574219 110.894531 C 252.449219 109.246094 251.222656 107.691406 249.714844 106.363281 C 249.347656 106.039062 249.058594 105.554688 249.527344 105.09375 C 249.960938 104.671875 250.484375 104.667969 251.101562 104.8125 C 253.335938 105.328125 254.347656 107.371094 255.996094 108.609375 C 256.605469 109.070312 257.175781 109.582031 257.761719 110.066406 C 257.761719 110.066406 257.75 110.054688 257.75 110.054688 Z M 257.75 110.054688 " fill-opacity="0.5" fill-rule="nonzero"/><path fill="#9f9b38" d="M 315.085938 174.824219 C 314.316406 174.59375 313.519531 174.480469 312.863281 174.121094 C 312.066406 173.6875 312.347656 173.015625 312.996094 172.734375 C 315.183594 171.785156 317.054688 170.242188 319.386719 169.542969 C 321.121094 169.023438 322.265625 167.511719 323.691406 166.464844 C 324.386719 165.957031 325.042969 165.460938 325.734375 166.472656 C 325.941406 166.769531 326.273438 166.882812 326.574219 166.597656 C 326.929688 166.257812 327.527344 166.011719 327.210938 165.328125 C 326.9375 164.730469 327.164062 164.292969 327.679688 163.992188 C 329.320312 163.050781 329.808594 161.671875 329.347656 159.875 C 329.191406 159.273438 329.09375 158.59375 329.9375 158.40625 C 330.769531 158.226562 331.222656 158.816406 331.269531 159.480469 C 331.34375 160.449219 332.242188 161.199219 331.914062 162.253906 C 331.832031 162.523438 332.101562 162.699219 332.386719 162.625 C 332.855469 162.503906 333.464844 161.984375 333.65625 162.832031 C 333.8125 163.527344 333.292969 164.167969 332.726562 164.410156 C 330.457031 165.386719 328.769531 167.207031 326.40625 168.230469 C 323.835938 169.339844 321.132812 170.839844 318.902344 172.804688 C 317.789062 173.789062 316.484375 174.40625 315.085938 174.824219 Z M 315.085938 174.824219 " fill-opacity="0.5" fill-rule="nonzero"/><path fill="#9f9b38" d="M 283.804688 123.925781 C 282.476562 124.269531 281.160156 124.648438 279.820312 124.929688 C 279.3125 125.035156 279.289062 125.179688 279.359375 125.640625 C 279.503906 126.589844 278.898438 127.007812 278.121094 126.664062 C 276.921875 126.128906 276.203125 124.710938 274.585938 124.824219 C 274.253906 124.847656 274.0625 123.972656 274.535156 123.742188 C 275.371094 123.332031 276.292969 122.449219 277.230469 123.523438 C 277.605469 123.957031 277.566406 123.898438 278.128906 123.617188 C 279.824219 122.769531 281.777344 122.957031 283.640625 123.015625 C 284.058594 123.03125 283.957031 123.585938 283.792969 123.9375 C 283.792969 123.9375 283.804688 123.925781 283.804688 123.925781 Z M 283.804688 123.925781 " fill-opacity="0.5" fill-rule="nonzero"/><path fill="#9f9b38" d="M 295.523438 166.441406 C 296.316406 167.878906 298.238281 164.886719 298.882812 167.195312 C 299.15625 168.171875 295.984375 170.773438 294.71875 170.800781 C 293.992188 170.816406 293.351562 170.335938 293.570312 169.726562 C 293.980469 168.574219 293.316406 166.746094 295.523438 166.441406 Z M 295.523438 166.441406 " fill-opacity="0.5" fill-rule="nonzero"/><path fill="#9f9b38" d="M 283.792969 123.9375 C 284.558594 123.699219 285.320312 123.425781 286.097656 123.238281 C 286.664062 123.097656 287.203125 123.316406 287.34375 123.902344 C 287.492188 124.515625 286.929688 124.742188 286.472656 124.859375 C 285.441406 125.128906 284.550781 125.648438 283.679688 126.238281 C 283.125 126.609375 282.355469 127.136719 281.921875 126.3125 C 281.558594 125.617188 282.058594 124.949219 282.820312 124.589844 C 283.171875 124.421875 283.476562 124.152344 283.804688 123.925781 C 283.804688 123.925781 283.792969 123.9375 283.792969 123.9375 Z M 283.792969 123.9375 " fill-opacity="0.5" fill-rule="nonzero"/><path fill="#605951" d="M 205.945312 94.390625 C 204.757812 94.523438 203.589844 94.933594 202.4375 95.292969 C 198.671875 96.457031 198.625 96.480469 197.386719 92.96875 C 197.34375 92.898438 197.304688 92.832031 197.261719 92.765625 C 194.703125 90.796875 192.511719 88.507812 191.027344 85.605469 C 190.878906 85.320312 190.660156 85.015625 190.660156 84.71875 C 190.632812 80.730469 187.320312 78.191406 186.230469 74.675781 C 186.09375 74.246094 185.695312 73.898438 185.417969 73.511719 C 185.652344 73.59375 185.945312 73.65625 186.226562 73.71875 C 185.539062 71.984375 184.828125 70.308594 184.355469 68.570312 C 180.738281 68.332031 176.929688 69.414062 173.632812 66.886719 C 172.269531 65.839844 169.949219 67.042969 169.765625 68.773438 C 169.714844 69.300781 169.417969 70.011719 168.980469 69.664062 C 167.875 68.78125 166.339844 69 165.292969 67.804688 C 164.351562 66.722656 162.691406 66.683594 161.265625 66.390625 C 160.371094 66.207031 159.09375 66.261719 159.984375 64.558594 C 160.460938 63.648438 160.523438 62.308594 159.910156 61.425781 C 159.300781 60.546875 158.265625 60.796875 157.183594 61.0625 C 154.96875 61.605469 152.632812 60.9375 150.339844 61.523438 C 149.21875 61.808594 148.085938 62.128906 147.207031 62.734375 C 145.886719 63.640625 144.625 63 143.339844 63.046875 C 143.300781 63.050781 143.246094 63.027344 143.191406 63 C 143.191406 63 141.015625 63 141.015625 63 C 140.957031 63.320312 140.769531 63.722656 140.453125 64.234375 C 140.027344 64.914062 139.542969 65.539062 138.796875 65.96875 C 137.414062 66.765625 136.324219 67.78125 136.480469 69.628906 C 136.542969 70.359375 136.289062 71.21875 135.59375 71.523438 C 132.832031 72.734375 131.226562 75.035156 129.945312 77.554688 C 128.90625 79.59375 126.980469 81.382812 128.335938 84.191406 C 129.085938 85.746094 128.675781 87.558594 127.800781 89.210938 C 126.84375 91.027344 127.703125 94.167969 129.296875 95.566406 C 129.625 95.851562 129.925781 96.21875 130.113281 96.609375 C 131.511719 99.457031 133.167969 102.070312 135.984375 103.765625 C 136.78125 104.246094 137.632812 105.222656 138.453125 104.808594 C 141.707031 103.175781 145.5625 105.035156 148.761719 102.75 C 149.882812 101.949219 152 101.714844 152.996094 103.445312 C 153.679688 104.636719 154.410156 104.9375 155.632812 104.746094 C 157.671875 104.429688 158.511719 105.742188 158.117188 107.753906 C 157.792969 109.386719 156.714844 111.257812 157.628906 112.730469 C 158.6875 114.441406 159.917969 116.117188 160.714844 117.929688 C 162.117188 121.132812 163.144531 124.511719 161.375 127.980469 C 160.257812 130.171875 160.03125 132.464844 161.109375 134.640625 C 162.226562 136.910156 163.0625 139.175781 163.367188 141.722656 C 163.640625 144.023438 163.628906 146.5 165.550781 148.332031 C 166.667969 149.398438 166.964844 150.964844 167.457031 152.355469 C 167.898438 153.601562 166.929688 155.167969 168.414062 156.261719 C 169.953125 157.394531 171.175781 155.886719 172.570312 155.925781 C 178.855469 156.085938 182.066406 152.113281 184.5625 147.082031 C 185.054688 146.085938 184.53125 144.59375 185.816406 144.078125 C 188.058594 143.171875 188.550781 141.386719 187.964844 139.425781 C 187.109375 136.566406 188.683594 135.503906 190.851562 134.53125 C 193.863281 133.183594 195.820312 126.515625 194.082031 123.84375 C 192.703125 121.730469 193.09375 119.390625 193.484375 117.171875 C 194.03125 114.050781 196.371094 111.957031 198.601562 110.039062 C 202.957031 106.28125 205.796875 101.714844 207.03125 96.128906 C 207.226562 95.242188 207.207031 94.25 205.945312 94.390625 Z M 205.945312 94.390625 " fill-opacity="1" fill-rule="nonzero"/><path fill="#605951" d="M 199.058594 144.679688 C 197.410156 144.679688 195.480469 141.296875 196.566406 139.417969 C 197.78125 137.316406 197.582031 135.140625 197.945312 132.996094 C 198.113281 132.007812 198.558594 131.371094 199.460938 131.191406 C 201.691406 130.75 202.417969 128.890625 203.332031 127.210938 C 203.582031 126.757812 203.804688 126.324219 204.359375 126.339844 C 204.886719 126.355469 204.847656 126.882812 205.015625 127.234375 C 206.0625 129.402344 205.664062 131.402344 204.792969 133.589844 C 203.675781 136.386719 202.542969 139.203125 201.886719 142.183594 C 201.589844 143.542969 200.808594 144.761719 199.058594 144.679688 Z M 199.058594 144.679688 " fill-opacity="1" fill-rule="nonzero"/><path fill="#af3c1a" d="M 63.558594 99.308594 C 63.867188 98.945312 64.335938 98.976562 64.648438 99.730469 C 66.046875 103.078125 65.257812 106.015625 62.59375 108.625 C 61.292969 109.90625 60.5 111.710938 61.613281 113.558594 C 61.984375 114.171875 61.953125 114.351562 61.519531 114.804688 C 60.339844 116.042969 60.367188 117.820312 61.363281 118.695312 C 63.289062 120.390625 64.1875 122.566406 65.328125 124.691406 C 67.019531 127.839844 68.5625 131.050781 72.246094 132.625 C 74.261719 133.488281 75.367188 135.394531 75.40625 137.828125 C 75.464844 141.539062 75.667969 145.25 75.910156 148.957031 C 76.09375 151.742188 77.460938 154.4375 76.535156 157.3125 C 76.15625 158.488281 76.335938 159.628906 76.789062 160.753906 C 77.359375 162.160156 77.480469 163.570312 77.304688 165.117188 C 77.179688 166.21875 77.632812 167.472656 78.894531 168.023438 C 79.179688 168.144531 79.800781 167.585938 79.75 168.359375 C 79.707031 169.007812 80.535156 169.675781 79.625 170.332031 C 79.171875 170.660156 78.554688 171.632812 79.035156 171.820312 C 80.332031 172.328125 79.871094 173.421875 80.195312 174.226562 C 80.996094 176.203125 82.191406 177.871094 83.71875 179.371094 C 86.414062 182.011719 89.507812 183.441406 93.335938 182.949219 C 93.597656 182.917969 93.921875 182.664062 94.050781 182.421875 C 94.230469 182.078125 93.933594 181.828125 93.640625 181.652344 C 92.746094 181.105469 91.871094 180.523438 90.949219 180.027344 C 88.472656 178.691406 88.058594 176.730469 89.621094 174.457031 C 90.449219 173.253906 90.550781 172 88.777344 171.363281 C 88.238281 171.171875 87.335938 170.820312 88.054688 170.171875 C 88.886719 169.433594 88.886719 168.542969 89.054688 167.667969 C 89.285156 166.441406 88.039062 164.601562 90.527344 164.363281 C 90.601562 164.355469 90.730469 163.90625 90.671875 163.710938 C 90.230469 162.246094 90.828125 161.917969 92.222656 161.980469 C 93.359375 162.03125 94.328125 161.398438 94.867188 160.328125 C 95.367188 159.316406 95.242188 158.382812 94.4375 157.535156 C 94.21875 157.300781 94.167969 156.90625 94.039062 156.582031 C 94.351562 156.621094 94.671875 156.621094 94.96875 156.707031 C 95.597656 156.878906 96.136719 156.757812 96.699219 156.417969 C 98.902344 155.089844 99.433594 152.59375 100.722656 150.636719 C 101.59375 149.3125 102.675781 147.921875 101.984375 146.078125 C 101.371094 144.433594 102.460938 143.703125 103.59375 142.742188 C 105.117188 141.445312 107.503906 141.609375 108.574219 140.253906 C 110.734375 137.519531 111.535156 134.097656 111.636719 130.578125 C 111.675781 129.265625 111.289062 128 112.519531 126.824219 C 113.664062 125.730469 114.628906 124.3125 115.269531 122.859375 C 116.820312 119.34375 115.898438 117.578125 111.519531 114.964844 C 110.34375 114.261719 109.242188 113.34375 107.738281 113.570312 C 106.601562 113.746094 105.6875 113.183594 104.78125 112.683594 C 103.335938 111.882812 101.859375 111.226562 100.277344 110.710938 C 99.515625 110.464844 98.292969 110.320312 98.140625 109.050781 C 97.738281 105.628906 95.773438 101.597656 91.738281 102.046875 C 90.972656 102.132812 90.320312 101.925781 89.757812 101.355469 C 88.382812 99.964844 87.101562 98.433594 85.535156 97.300781 C 84.535156 96.578125 83.5 95.292969 81.910156 95.925781 C 81.078125 96.257812 80.289062 95.90625 79.523438 95.90625 C 77.863281 95.90625 76.890625 94.386719 75.289062 94.429688 C 74.761719 94.445312 73.429688 95.621094 73.734375 93.65625 C 73.796875 93.246094 72.976562 93.015625 72.773438 93.265625 C 71.460938 94.886719 68.980469 94.863281 67.902344 96.804688 C 67.34375 97.816406 66.621094 98.46875 65.378906 97.558594 C 64.925781 97.222656 64.417969 97.058594 63.875 97.085938 C 63.894531 97.78125 63.730469 98.542969 63.558594 99.308594 Z M 63.558594 99.308594 " fill-opacity="1" fill-rule="nonzero"/></svg>