<svg xmlns="http://www.w3.org/2000/svg" xmlns:xlink="http://www.w3.org/1999/xlink" width="47" zoomAndPan="magnify" viewBox="0 0 35.25 37.499999" height="50" preserveAspectRatio="xMidYMid meet" version="1.0"><defs><clipPath id="6bf278fc87"><path d="M 6 13 L 24 13 L 24 28 L 6 28 Z M 6 13 " clip-rule="nonzero"/></clipPath><clipPath id="27a6b933da"><path d="M 4.992188 22.089844 L 20.21875 11.328125 L 25.597656 18.941406 L 10.371094 29.703125 Z M 4.992188 22.089844 " clip-rule="nonzero"/></clipPath><clipPath id="24c59f1c1a"><path d="M 16.410156 14.019531 C 18.515625 12.53125 21.421875 13.03125 22.90625 15.136719 C 24.394531 17.238281 23.894531 20.144531 21.792969 21.632812 L 14.179688 27.011719 C 12.074219 28.496094 9.167969 27.996094 7.683594 25.894531 C 6.195312 23.792969 6.695312 20.882812 8.796875 19.398438 Z M 16.410156 14.019531 " clip-rule="nonzero"/></clipPath><clipPath id="57f230f297"><path d="M 3 5 L 29 5 L 29 33 L 3 33 Z M 3 5 " clip-rule="nonzero"/></clipPath><clipPath id="8ce5bb9677"><path d="M 0.671875 25.296875 L 17.445312 0.292969 L 33.910156 11.34375 L 17.136719 36.34375 Z M 0.671875 25.296875 " clip-rule="nonzero"/></clipPath><clipPath id="166f6ae860"><path d="M 0.671875 25.296875 L 17.445312 0.292969 L 33.910156 11.34375 L 17.136719 36.34375 Z M 0.671875 25.296875 " clip-rule="nonzero"/></clipPath><clipPath id="db648127b5"><path d="M 3 6 L 28 6 L 28 32 L 3 32 Z M 3 6 " clip-rule="nonzero"/></clipPath><clipPath id="7b5c5cfe6b"><path d="M 0.671875 25.296875 L 17.445312 0.292969 L 33.910156 11.34375 L 17.136719 36.34375 Z M 0.671875 25.296875 " clip-rule="nonzero"/></clipPath><clipPath id="374425f1f8"><path d="M 0.671875 25.296875 L 17.445312 0.292969 L 33.910156 11.34375 L 17.136719 36.34375 Z M 0.671875 25.296875 " clip-rule="nonzero"/></clipPath><clipPath id="9cd60f1690"><path d="M 6 25 L 12 25 L 12 28 L 6 28 Z M 6 25 " clip-rule="nonzero"/></clipPath><clipPath id="d61b5d066e"><path d="M 0.671875 25.296875 L 17.445312 0.292969 L 33.910156 11.34375 L 17.136719 36.34375 Z M 0.671875 25.296875 " clip-rule="nonzero"/></clipPath><clipPath id="b31b512748"><path d="M 0.671875 25.296875 L 17.445312 0.292969 L 33.910156 11.34375 L 17.136719 36.34375 Z M 0.671875 25.296875 " clip-rule="nonzero"/></clipPath><clipPath id="368e067b61"><path d="M 13 12 L 18 12 L 18 18 L 13 18 Z M 13 12 " clip-rule="nonzero"/></clipPath><clipPath id="ef92214038"><path d="M 0.671875 25.296875 L 17.445312 0.292969 L 33.910156 11.34375 L 17.136719 36.34375 Z M 0.671875 25.296875 " clip-rule="nonzero"/></clipPath><clipPath id="68a6ab52bf"><path d="M 0.671875 25.296875 L 17.445312 0.292969 L 33.910156 11.34375 L 17.136719 36.34375 Z M 0.671875 25.296875 " clip-rule="nonzero"/></clipPath><clipPath id="0308010b59"><path d="M 13 10 L 28 10 L 28 24 L 13 24 Z M 13 10 " clip-rule="nonzero"/></clipPath><clipPath id="1a8667c8d3"><path d="M 0.671875 25.296875 L 17.445312 0.292969 L 33.910156 11.34375 L 17.136719 36.34375 Z M 0.671875 25.296875 " clip-rule="nonzero"/></clipPath><clipPath id="4d11b2e865"><path d="M 0.671875 25.296875 L 17.445312 0.292969 L 33.910156 11.34375 L 17.136719 36.34375 Z M 0.671875 25.296875 " clip-rule="nonzero"/></clipPath><clipPath id="2d09aca748"><path d="M 9 16 L 16 16 L 16 19 L 9 19 Z M 9 16 " clip-rule="nonzero"/></clipPath><clipPath id="b744bc5d73"><path d="M 0.671875 25.296875 L 17.445312 0.292969 L 33.910156 11.34375 L 17.136719 36.34375 Z M 0.671875 25.296875 " clip-rule="nonzero"/></clipPath><clipPath id="4ac3912335"><path d="M 0.671875 25.296875 L 17.445312 0.292969 L 33.910156 11.34375 L 17.136719 36.34375 Z M 0.671875 25.296875 " clip-rule="nonzero"/></clipPath><clipPath id="580007a936"><path d="M 22 16 L 25 16 L 25 19 L 22 19 Z M 22 16 " clip-rule="nonzero"/></clipPath><clipPath id="6db3f6c665"><path d="M 0.671875 25.296875 L 17.445312 0.292969 L 33.910156 11.34375 L 17.136719 36.34375 Z M 0.671875 25.296875 " clip-rule="nonzero"/></clipPath><clipPath id="d4f650866b"><path d="M 0.671875 25.296875 L 17.445312 0.292969 L 33.910156 11.34375 L 17.136719 36.34375 Z M 0.671875 25.296875 " clip-rule="nonzero"/></clipPath><clipPath id="5861efe152"><path d="M 16 12 L 25 12 L 25 20 L 16 20 Z M 16 12 " clip-rule="nonzero"/></clipPath><clipPath id="d36db0bbac"><path d="M 0.671875 25.296875 L 17.445312 0.292969 L 33.910156 11.34375 L 17.136719 36.34375 Z M 0.671875 25.296875 " clip-rule="nonzero"/></clipPath><clipPath id="9cdee08ba5"><path d="M 0.671875 25.296875 L 17.445312 0.292969 L 33.910156 11.34375 L 17.136719 36.34375 Z M 0.671875 25.296875 " clip-rule="nonzero"/></clipPath><clipPath id="96592663e2"><path d="M 13 19 L 20 19 L 20 24 L 13 24 Z M 13 19 " clip-rule="nonzero"/></clipPath><clipPath id="468d9774dc"><path d="M 0.671875 25.296875 L 17.445312 0.292969 L 33.910156 11.34375 L 17.136719 36.34375 Z M 0.671875 25.296875 " clip-rule="nonzero"/></clipPath><clipPath id="1e0d0786a4"><path d="M 0.671875 25.296875 L 17.445312 0.292969 L 33.910156 11.34375 L 17.136719 36.34375 Z M 0.671875 25.296875 " clip-rule="nonzero"/></clipPath><clipPath id="14f3550c09"><path d="M 9 25 L 12 25 L 12 28 L 9 28 Z M 9 25 " clip-rule="nonzero"/></clipPath><clipPath id="45acb78a66"><path d="M 0.671875 25.296875 L 17.445312 0.292969 L 33.910156 11.34375 L 17.136719 36.34375 Z M 0.671875 25.296875 " clip-rule="nonzero"/></clipPath><clipPath id="646b7cda60"><path d="M 0.671875 25.296875 L 17.445312 0.292969 L 33.910156 11.34375 L 17.136719 36.34375 Z M 0.671875 25.296875 " clip-rule="nonzero"/></clipPath></defs><g clip-path="url(#6bf278fc87)"><g clip-path="url(#27a6b933da)"><g clip-path="url(#24c59f1c1a)"><path fill="#ffffff" d="M 4.992188 22.089844 L 20.21875 11.328125 L 25.597656 18.941406 L 10.371094 29.703125 Z M 4.992188 22.089844 " fill-opacity="1" fill-rule="nonzero"/></g></g></g><g clip-path="url(#57f230f297)"><g clip-path="url(#8ce5bb9677)"><g clip-path="url(#166f6ae860)"><path fill="#1b2123" d="M 26.667969 21.683594 C 23.488281 23 20.21875 25.101562 17.460938 27.605469 C 16.089844 28.851562 14.878906 30.164062 13.863281 31.507812 L 13.34375 32.191406 L 11.179688 27.347656 C 10.222656 27.992188 8.121094 29.109375 5.878906 28.40625 C 4.792969 28.0625 4.070312 27.511719 3.667969 26.722656 C 3.144531 25.683594 2.4375 22.679688 5.292969 20.300781 C 7.378906 18.40625 10.683594 17.964844 11.375 17.894531 C 11.597656 17.753906 11.804688 17.597656 11.996094 17.421875 C 12.765625 16.722656 13.226562 15.777344 13.757812 14.6875 C 14.519531 13.128906 15.464844 11.1875 17.714844 9.148438 C 17.992188 8.894531 18.285156 8.644531 18.589844 8.402344 C 21.246094 6.269531 23.371094 5.5 25.085938 6.046875 C 25.84375 6.292969 27.8125 7.628906 28.515625 10.164062 C 28.921875 11.503906 28.492188 12.925781 27.730469 14.355469 C 27.371094 15.027344 26.675781 16.070312 25.414062 17.21875 C 25.066406 17.53125 24.757812 17.785156 24.519531 17.964844 L 27.289062 21.425781 Z M 26.667969 21.683594 " fill-opacity="1" fill-rule="nonzero"/></g></g></g><g clip-path="url(#db648127b5)"><g clip-path="url(#7b5c5cfe6b)"><g clip-path="url(#374425f1f8)"><path fill="#ffffff" d="M 27.78125 10.324219 C 28.21875 11.78125 27.832031 13.160156 27.152344 14.332031 C 25.9375 16.433594 23.789062 17.863281 23.789062 17.863281 L 26.464844 21.210938 C 25.234375 21.71875 23.996094 22.34375 22.777344 23.058594 C 19.222656 25.148438 15.851562 28.027344 13.453125 31.195312 L 11.382812 26.558594 C 11.382812 26.558594 8.777344 28.78125 6.027344 27.917969 C 4.277344 27.367188 3.253906 25.535156 4.140625 22.722656 C 5.445312 18.988281 11.542969 18.390625 11.542969 18.390625 C 14.582031 16.589844 13.773438 12.917969 18.910156 8.800781 C 24.03125 4.699219 26.558594 6.253906 27.78125 10.324219 Z M 27.78125 10.324219 " fill-opacity="1" fill-rule="nonzero"/></g></g></g><g clip-path="url(#9cd60f1690)"><g clip-path="url(#d61b5d066e)"><g clip-path="url(#b31b512748)"><path fill="#ffffff" d="M 11.066406 26.640625 C 11.066406 26.640625 8.988281 27.679688 7.761719 27.550781 C 6.503906 27.417969 6.011719 26.847656 6.253906 26.824219 C 6.496094 26.804688 7.691406 27.179688 8.234375 26.625 C 8.773438 26.066406 7.375 25.675781 8.039062 25.472656 C 8.703125 25.265625 9.664062 25.457031 10.273438 25.765625 C 10.882812 26.078125 11.066406 26.640625 11.066406 26.640625 Z M 11.066406 26.640625 " fill-opacity="1" fill-rule="nonzero"/></g></g></g><g clip-path="url(#368e067b61)"><g clip-path="url(#ef92214038)"><g clip-path="url(#68a6ab52bf)"><path fill="#ffffff" d="M 13.277344 17.464844 C 13.277344 17.464844 14.613281 16.539062 15.519531 14.742188 C 16.425781 12.945312 17.265625 11.832031 17.644531 12.253906 C 18.027344 12.671875 18.054688 13.757812 16.648438 15.382812 C 15.246094 17.007812 13.277344 17.464844 13.277344 17.464844 Z M 13.277344 17.464844 " fill-opacity="1" fill-rule="nonzero"/></g></g></g><g clip-path="url(#0308010b59)"><g clip-path="url(#1a8667c8d3)"><g clip-path="url(#4d11b2e865)"><path fill="#ffffff" d="M 27.417969 12.535156 C 27.410156 12.574219 27.269531 13.640625 27.152344 14.332031 C 25.9375 16.433594 23.789062 17.863281 23.789062 17.863281 L 26.464844 21.210938 C 25.234375 21.71875 23.996094 22.34375 22.777344 23.058594 C 22.976562 22.652344 23.027344 22.136719 22.734375 21.507812 C 21.863281 19.640625 20.925781 18.808594 20.925781 18.808594 C 20.925781 18.808594 19.847656 21.285156 18.34375 22.273438 C 16.855469 23.257812 13.597656 22.894531 13.546875 22.890625 C 13.574219 22.871094 15.097656 22.039062 15.804688 21.304688 C 16.515625 20.566406 16.515625 20.566406 16.515625 20.566406 C 15.347656 20.117188 14.269531 19.65625 14.921875 19.015625 C 14.921875 19.015625 18.605469 19.511719 21.535156 15.820312 C 24.460938 12.128906 23.40625 10.558594 24.804688 10.878906 C 26.203125 11.199219 25.429688 14.621094 26.230469 14.175781 C 27.011719 13.738281 27.402344 12.578125 27.417969 12.535156 Z M 27.417969 12.535156 " fill-opacity="1" fill-rule="nonzero"/></g></g></g><g clip-path="url(#2d09aca748)"><g clip-path="url(#b744bc5d73)"><g clip-path="url(#4ac3912335)"><path fill="#1b2123" d="M 9.800781 18.648438 C 9.800781 18.648438 11.847656 18.574219 13.453125 17.96875 C 15.058594 17.363281 15.804688 16.019531 15.804688 16.019531 C 15.804688 16.019531 14.378906 17.03125 13.277344 17.464844 C 12.171875 17.898438 11.921875 17.933594 11.921875 17.933594 Z M 9.800781 18.648438 " fill-opacity="1" fill-rule="nonzero"/></g></g></g><g clip-path="url(#580007a936)"><g clip-path="url(#6db3f6c665)"><g clip-path="url(#d4f650866b)"><path fill="#1b2123" d="M 22.949219 16.410156 C 22.992188 16.742188 23.785156 17.835938 24.414062 18.636719 L 24.519531 17.964844 C 24.050781 17.402344 23.660156 16.894531 23.335938 16.433594 Z M 22.949219 16.410156 " fill-opacity="1" fill-rule="nonzero"/></g></g></g><g clip-path="url(#5861efe152)"><g clip-path="url(#d36db0bbac)"><g clip-path="url(#9cdee08ba5)"><path fill="#1b2123" d="M 24.972656 12.546875 C 24.972656 12.546875 25.050781 14.671875 22.117188 17.027344 C 19.179688 19.378906 16.6875 19.761719 16.6875 19.761719 C 16.6875 19.761719 19.28125 19.847656 22.121094 17.871094 C 23.875 16.585938 23.410156 16.921875 24.269531 15.753906 C 25.128906 14.582031 24.972656 12.546875 24.972656 12.546875 Z M 24.972656 12.546875 " fill-opacity="1" fill-rule="nonzero"/></g></g></g><g clip-path="url(#96592663e2)"><g clip-path="url(#468d9774dc)"><g clip-path="url(#1e0d0786a4)"><path fill="#1b2123" d="M 18.257812 19.445312 C 17.652344 21.148438 15.59375 22.886719 13.375 23.335938 C 13.375 23.335938 14.25 23.625 16.179688 22.644531 C 18.113281 21.660156 19.226562 19.101562 19.226562 19.101562 Z M 18.257812 19.445312 " fill-opacity="1" fill-rule="nonzero"/></g></g></g><g clip-path="url(#14f3550c09)"><g clip-path="url(#45acb78a66)"><g clip-path="url(#646b7cda60)"><path fill="#1b2123" d="M 11.597656 27.183594 C 11.574219 27.035156 11.476562 26.554688 11.164062 26.210938 C 10.851562 25.867188 9.078125 25.707031 9.078125 25.707031 C 9.078125 25.707031 10.246094 26.128906 10.621094 26.417969 C 10.996094 26.703125 11.179688 27.347656 11.179688 27.347656 Z M 11.597656 27.183594 " fill-opacity="1" fill-rule="nonzero"/></g></g></g></svg>